<svg width="19" height="19" fill="none" xmlns="http://www.w3.org/2000/svg"><path d="M17.752 2.66a.621.621 0 00-.45-.514L9.667.023a.62.62 0 00-.332 0L1.697 2.146a.62.62 0 00-.448.513c-.045.319-1.055 7.844 1.537 11.587 2.588 3.74 6.407 4.698 6.568 4.737a.62.62 0 00.292 0c.161-.04 3.98-.998 6.569-4.737 2.591-3.743 1.58-11.268 1.537-11.587zm-3.327 4.392l-5.21 5.21a.62.62 0 01-.877 0L5.118 9.04a.62.62 0 010-.878l.639-.64a.62.62 0 01.878 0l2.142 2.142 4.13-4.13a.62.62 0 01.878 0l.64.64a.62.62 0 010 .877z" fill="#F89D33"/></svg>