<svg width="21" height="18" fill="none" xmlns="http://www.w3.org/2000/svg"><g clip-path="url(#clip0_110_6034)"><path d="M17.614 7.858a3.097 3.097 0 01-2.72-.986 3.098 3.098 0 01-2.296 1.014c-.92 0-1.737-.399-2.297-1.015a3.093 3.093 0 01-2.297 1.015A3.097 3.097 0 015.71 6.87a3.1 3.1 0 01-2.725.987c-1.949-.26-2.87-2.54-1.829-4.176l2.02-3.17c.18-.286.5-.46.843-.46h12.57c.342 0 .662.174.842.46l2.019 3.17c1.046 1.64.12 3.917-1.836 4.176zm.148 1.108a4.59 4.59 0 00.433-.08v6.833a2.248 2.248 0 01-2.254 2.238H4.668a2.248 2.248 0 01-2.255-2.238V8.886c.136.035.277.063.422.08h.004a4.237 4.237 0 001.829-.15v4.665H15.94V8.819a4.32 4.32 0 001.821.147z" fill="#F89D33"/></g><defs><clipPath id="clip0_110_6034"><path fill="#fff" transform="translate(0 .052)" d="M0 0h20.292v17.905H0z"/></clipPath></defs></svg>