<svg width="248" height="48" fill="none" xmlns="http://www.w3.org/2000/svg"><g clip-path="url(#clip0_678_9741)"><path d="M64.512 37.14V10.19h5.148v22.358h13.508v4.591H64.512zm31.348-4.43a5.705 5.705 0 003.056-.757 5.843 5.843 0 002.017-1.975 7.77 7.77 0 001.083-2.769c.22-1.07.328-2.16.324-3.253V10.19h5.112v13.736a19.465 19.465 0 01-.671 5.206 11.59 11.59 0 01-2.052 4.25 9.685 9.685 0 01-3.582 2.885 11.997 11.997 0 01-5.262 1.064c-2.113 0-3.917-.368-5.41-1.103a10.382 10.382 0 01-3.582-2.96 12.3 12.3 0 01-2.014-4.289 21.05 21.05 0 01-.59-5.053V10.19h5.148v13.736a18.009 18.009 0 00.299 3.303c.2.98.566 1.917 1.082 2.772a6.318 6.318 0 002.014 1.975 5.893 5.893 0 003.027.735zm21.936-12.84v17.27h-5.148V10.19h3.994l13.804 17.69V10.228h5.151v26.91h-4.182l-13.619-17.27z" fill="#000"/><path d="M152.413 37.331a12.153 12.153 0 01-5.297-1.139 13.653 13.653 0 01-4.069-3.074 14.52 14.52 0 01-2.613-4.406 14.148 14.148 0 01-.93-5.046 13.97 13.97 0 01.973-5.163 14.74 14.74 0 012.723-4.367 12.955 12.955 0 014.143-2.996A11.852 11.852 0 01152.53 10a11.21 11.21 0 015.225 1.214 12.774 12.774 0 014.066 3.113 14.384 14.384 0 012.606 4.393 14.034 14.034 0 01-.039 10.174 14.243 14.243 0 01-2.684 4.327 13.3 13.3 0 01-4.104 2.996 12.222 12.222 0 01-5.187 1.113zm-7.686-13.665a11.019 11.019 0 00.509 3.377 9.257 9.257 0 001.491 2.886 7.832 7.832 0 002.428 2.01 6.959 6.959 0 003.294.772 6.83 6.83 0 003.284-.758 7.43 7.43 0 002.424-2.089 8.783 8.783 0 001.495-2.883c.344-1.067.52-2.18.522-3.302a10.366 10.366 0 00-.561-3.38 8.777 8.777 0 00-1.53-2.88 6.893 6.893 0 00-2.425-1.975 6.663 6.663 0 00-3.209-.758 6.786 6.786 0 00-3.323.781 7.057 7.057 0 00-2.425 2.05 9.266 9.266 0 00-1.495 2.882 11.258 11.258 0 00-.479 3.267z" fill="#F88E33"/><path d="M191.593 10.19v26.95h-5.119V25.637H174.46v11.501h-5.151V10.19h5.151v10.894h12.014V10.19h5.119z" fill="#000"/><path d="M208.416 37.331a12.183 12.183 0 01-5.301-1.139 13.678 13.678 0 01-4.068-3.074 14.443 14.443 0 01-2.594-4.406 14.127 14.127 0 01-.933-5.046c-.006-1.768.324-3.52.972-5.163a14.74 14.74 0 012.723-4.367 12.947 12.947 0 014.14-2.996 11.88 11.88 0 015.187-1.14 11.217 11.217 0 015.226 1.214 12.794 12.794 0 014.049 3.113 14.463 14.463 0 012.626 4.393 14.04 14.04 0 01-.039 10.174 14.262 14.262 0 01-2.684 4.327 13.293 13.293 0 01-4.105 2.996 12.23 12.23 0 01-5.199 1.113zm-7.687-13.665a10.933 10.933 0 00.522 3.377 9.3 9.3 0 001.491 2.886 7.845 7.845 0 002.425 2.01 6.983 6.983 0 003.281.772 6.827 6.827 0 003.284-.758 7.473 7.473 0 002.425-2.089 8.8 8.8 0 001.494-2.883c.344-1.067.52-2.18.522-3.302a10.34 10.34 0 00-.561-3.38 8.843 8.843 0 00-1.526-2.88 6.893 6.893 0 00-2.425-1.975 6.673 6.673 0 00-3.21-.758 6.784 6.784 0 00-3.319.781 7.048 7.048 0 00-2.425 2.05 9.266 9.266 0 00-1.495 2.882 11.294 11.294 0 00-.483 3.267z" fill="#F88E33"/><path d="M225.309 37.14V10.19h9.628c1.943-.042 3.873.32 5.67 1.064a11.612 11.612 0 014.104 2.882 11.982 11.982 0 012.464 4.292 16.12 16.12 0 01.82 5.206 15.877 15.877 0 01-.934 5.58 11.935 11.935 0 01-2.593 4.252 12.125 12.125 0 01-4.143 2.733 14.479 14.479 0 01-5.372.947l-9.644-.007zm17.505-13.513a11.697 11.697 0 00-.521-3.579 8.01 8.01 0 00-1.531-2.808 6.766 6.766 0 00-2.499-1.822 8.125 8.125 0 00-3.32-.65h-4.48v17.764h4.48a7.834 7.834 0 003.359-.683 6.804 6.804 0 002.46-1.861 8.402 8.402 0 001.531-2.847c.354-1.137.53-2.323.521-3.514z" fill="#000"/><path d="M7.483 11.46c-.061-.127-.324-.742-.61-.554-.189.22-.323.484-.388.768-.062.283-.055.577.023.856a3.048 3.048 0 001.274 1.366c.136 0 .324-.26.395-.458.071-.199-.353-.427-.613-.977-.259-.55-.016-.868-.08-1.002zm3.696-6.866A4.958 4.958 0 009.727 5.99c0 .137.648.583.872.615.223.033.288-.384.684-.78.395-.398 1.037-.095 1.037-.095s.49-.52.396-.814c-.094-.292-.914-.582-1.537-.322zm6.059 4.624c-.154.989-.37 1.967-.648 2.928-.519 1.178-1.65 2.508-1.65 2.74 0 .23.395.289.684.227.288-.062.842-.686 1.556-2.082a10.69 10.69 0 00.972-3.51c-.039-.2-.924-.326-.924-.326l.01.023zm1.433 14.78a35.146 35.146 0 00-2.72 3.436 2.05 2.05 0 001.04.199 18.259 18.259 0 002.364-3.322c-.071-.189-.558-.325-.684-.325v.013zM41.497 1.472a3.367 3.367 0 00-1.333-1.26 2.392 2.392 0 00-2.2.124 2.4 2.4 0 00-.811.794c-.206.325-.33.694-.364 1.077a3.564 3.564 0 001.424 2.948l-1.777 12.364a4.148 4.148 0 00-2.593 1.04 3.943 3.943 0 00-1.213 2.74l-2.376-.221c-1.04-.081-3.55-.342-3.55-.342a5.301 5.301 0 00-.217-1.168c-.178-.478-1.04-.956-1.04-.956l1.04-4.464c.422-.236.756-.602.953-1.045a1.78 1.78 0 00.152-.787 1.752 1.752 0 00-.749-1.376 1.711 1.711 0 00-.742-.303 2.003 2.003 0 00-2.376.781l-1.546-.406s.56-4.686-1.038-6.81c-1.598-2.125-6.227-3.127-9.424-2.867-3.196.26-5.365 4.168-5.365 4.168l-1.203-.52c.08-.399.08-.81 0-1.208a3.058 3.058 0 00-.476-1.106c-.782-1.038-3.216-.293-3.997.72C-.106 4.4-.453 5.929 1 6.909a2.91 2.91 0 002.989 0l1.037.78a8.488 8.488 0 00-1.173 1.953 6.663 6.663 0 000 4.594 10.073 10.073 0 003.984 4.46c1.62.72 6.35 2.086 9.858-.195a10.412 10.412 0 004.247-6.25l1.62.26c.063.32.172.63.325.918.244.42.604.759 1.037.976l-.846 4.106c-.509.133-.982.38-1.384.719a2.983 2.983 0 00-1.037 1.396c-1.04 0-2.077.055-3.113.166a6.068 6.068 0 00-3.403 1.822c-1.132 1.04-4.672 6.969-4.672 6.969a8.163 8.163 0 00-1.877.52 10.386 10.386 0 00-5.086 4.53A9 9 0 004.54 44.785c2.434 2.297 3.083 2.948 10.137 3.218h26.048c4.37 0 6.685-.427 8.396-1.917a9.17 9.17 0 002.763-4.434 9.197 9.197 0 00-.104-5.229c-1.362-4.812-4.837-5.375-4.837-5.375a19.72 19.72 0 00-1.754-2.863 64.63 64.63 0 00-4.84-5.733 9.69 9.69 0 00-.382-2.957 4.029 4.029 0 00-.973-1.279c-.4-.358-.87-.632-1.378-.803L39.373 5.7a3.256 3.256 0 002.013-.947 3.135 3.135 0 00.11-3.283zM3.966 4.884c0 .272-.076.538-.22.768a1.47 1.47 0 01-.594.533 1.435 1.435 0 01-1.53-.162c-1.39-.781 0-2.47.746-2.603 1.38-.238 1.767.459 1.62 1.47l-.022-.006zm7.566-1.809c1.463-.387 3.051-.325 3.343 1.53.07 1.64-.164 3.279-.688 4.834L7.87 6.137s2.211-2.688 3.663-3.062zm-5.186 3.81c.22 0 6.03 2.772 6.03 3.127 0 .354-.685 1.952-1.1 1.883a56.603 56.603 0 01-4.934-4.363c-.324-.292-.324-.7-.029-.667l.033.02zm-.095 7.522c-2.168-1.656 0-4.783.26-4.948 0 0 4.863 4.102 4.808 4.23-.056.126-2.918 2.361-5.097.695l.03.023zm12.819.052c-1.851 2.698-3.544 3.322-5.317 3.44a8.75 8.75 0 01-3.54-.326c-.425-.199-.746-.687-.383-.814a11.431 11.431 0 005.281-4.997c1.816-3.449 1.848-7.23 2.075-7.483.692.093 1.338.4 1.85.877a3.393 3.393 0 011.006 1.787c.51 2.203.86 4.806-.976 7.516h.004zm29.957 20.986c1.65 2.928.584 7.808-1.945 9.468-2.528 1.659-18.585 1.269-25.228 1.04-6.642-.227-13.074-.178-15.515-2.208-2.441-2.03-2.396-5.531-.768-7.978 1.627-2.447 3.76-4.656 10.549-5.04 7.72-.253 15.448-.082 23.15.51 5.926.697 8.094 1.28 9.754 4.208h.003zM40.07 24.874c1.1 1.5 3.466 4.822 3.206 4.851a1.858 1.858 0 01-.778-.091c-.165-.065-2.917-3.647-3.177-3.677-.259-.029-1.037.29-.9.52.135.232 2.884 2.93 2.687 2.958a5.21 5.21 0 01-1.423 0c-.166-.094-2.24-2.928-2.429-2.99-.188-.061-1.131.228-.972.46.159.23 2.47 2.436 2.27 2.54-.394.114-.81.114-1.204 0-.197-.123-1.526-2.144-1.815-2.209-.289-.065-1.037.198-.872.491.165.293 1.358 1.595 1.203 1.595l-22.933-.209c.324-.354 3.436-5.593 5.77-6.377 2.335-.784 13.003.065 16.346.387 3.342.323 3.922.251 5.021 1.75zm-.972-3.218a17.338 17.338 0 01-5.187-.553 2.863 2.863 0 01.962-1.812 2.846 2.846 0 011.923-.7c2.27.104 2.824 2.857 2.305 3.052l-.003.013zm-.325-17.322c-.84-.582-.904-2.697.354-3.123.703-.241 1.65.354 1.689 1.561.039 1.207-1.16 2.145-2.033 1.562h-.01zM11.5 32.686c-5.187 1.33-6.224 5.892-4.928 8.56 1.297 2.668 3.113 3.29 9.078 3.78 5.964.492 21.791.326 26.751 0 4.96-.325 5.903-2.075 6.322-4.395.418-2.32.55-5.04-1.816-6.709-2.366-1.669-7.949-1.467-13.427-1.53-5.48-.06-19.75-.282-21.98.294zm6.779 7.424c-1.041 3.875-6.747 4.88-9.34 2.343-2.593-2.538-2.431-8.072 4.214-8.655a4.83 4.83 0 013.39.925 4.863 4.863 0 011.739 5.361l-.003.026zm24.514-6.25a4.83 4.83 0 014.24 1.78 4.872 4.872 0 01.853 4.532c-1.037 3.875-6.743 4.88-9.34 2.343-2.596-2.538-2.405-8.05 4.247-8.632v-.023zm-9.505 6.312c-1.04 3.875-6.746 4.88-9.34 2.343-2.593-2.538-2.43-8.072 4.215-8.655a4.83 4.83 0 014.277 1.768 4.872 4.872 0 01.852 4.564l-.004-.02zM11.691 37.05a2.07 2.07 0 00-.84 1.59 2.092 2.092 0 00.724 1.663c1.39 1.396 4.088.199 3.536-1.688a2.26 2.26 0 00-3.413-1.552l-.007-.013zm15.049.133a2.073 2.073 0 00-.846 1.601 2.063 2.063 0 00.72 1.66c1.39 1.395 4.087.198 3.54-1.686a2.282 2.282 0 00-1.297-1.685 2.263 2.263 0 00-2.117.127v-.017zm18.264 1.448a2.282 2.282 0 00-1.291-1.684 2.262 2.262 0 00-1.072-.203 2.263 2.263 0 00-1.04.325 2.086 2.086 0 00-.126 3.26c1.386 1.396 4.074.241 3.536-1.698h-.007z" fill="#F88E33"/></g><defs><clipPath id="clip0_678_9741"><path fill="#fff" d="M0 0h248v48H0z"/></clipPath></defs></svg>