<svg width="23" height="22" fill="none" xmlns="http://www.w3.org/2000/svg"><g clip-path="url(#clip0_32_7128)" fill="#F89D33"><path d="M14.09 11a2.105 2.105 0 11-4.21 0 2.105 2.105 0 014.21 0z"/><path d="M16.909 7.275a1.957 1.957 0 00-.473-.726 1.956 1.956 0 00-.726-.473c-.222-.086-.557-.19-1.173-.217-.666-.03-.865-.037-2.552-.037s-1.886.006-2.552.037c-.616.028-.95.13-1.173.217a1.954 1.954 0 00-.726.473 1.94 1.94 0 00-.473.726c-.087.222-.19.557-.217 1.173-.03.666-.037.865-.037 2.552s.006 1.886.037 2.553c.028.615.13.95.217 1.172.101.275.263.523.472.727.204.21.452.37.727.472.222.087.557.19 1.173.218.666.03.865.036 2.552.036s1.886-.006 2.552-.036c.616-.028.95-.131 1.173-.218a2.092 2.092 0 001.199-1.199c.086-.222.19-.556.218-1.172.03-.667.036-.866.036-2.553 0-1.687-.006-1.886-.037-2.552-.027-.616-.13-.95-.217-1.173zm-4.924 6.968a3.243 3.243 0 110-6.486 3.243 3.243 0 010 6.486zm3.372-5.857a.758.758 0 110-1.516.758.758 0 010 1.516z"/><path d="M11.985 0c-6.074 0-11 4.926-11 11s4.926 11 11 11c6.075 0 11-4.926 11-11s-4.925-11-11-11zm6.279 13.604c-.03.673-.138 1.132-.294 1.533a3.23 3.23 0 01-1.847 1.848c-.402.156-.861.263-1.533.293-.674.031-.89.038-2.604.038-1.716 0-1.931-.007-2.605-.038-.672-.03-1.131-.137-1.533-.293a3.095 3.095 0 01-1.119-.729 3.095 3.095 0 01-.728-1.119c-.156-.401-.263-.86-.294-1.533-.03-.673-.038-.889-.038-2.604s.007-1.93.038-2.604c.03-.673.137-1.132.293-1.533.16-.422.408-.804.73-1.12.315-.32.696-.57 1.118-.728.402-.156.86-.263 1.533-.293.674-.031.889-.038 2.604-.038 1.716 0 1.93.007 2.604.038.673.03 1.132.137 1.534.293.421.159.803.407 1.119.729.32.315.57.697.728 1.119.156.401.263.86.294 1.533.03.673.038.889.038 2.604s-.008 1.93-.038 2.604z"/></g><defs><clipPath id="clip0_32_7128"><path fill="#fff" transform="translate(.985)" d="M0 0h22v22H0z"/></clipPath></defs></svg>