<svg width="23" height="22" fill="none" xmlns="http://www.w3.org/2000/svg"><g clip-path="url(#clip0_32_7136)" fill="#F89D33"><path d="M10.615 13.06L14.193 11l-3.578-2.061v4.122z"/><path d="M11.985 0c-6.074 0-11 4.926-11 11s4.926 11 11 11c6.075 0 11-4.926 11-11s-4.925-11-11-11zm6.874 11.011s0 2.231-.283 3.307a1.722 1.722 0 01-1.212 1.211c-1.076.284-5.379.284-5.379.284s-4.291 0-5.378-.295a1.723 1.723 0 01-1.212-1.212C5.112 13.242 5.112 11 5.112 11s0-2.23.283-3.306A1.757 1.757 0 016.607 6.47c1.075-.284 5.378-.284 5.378-.284s4.303 0 5.379.295a1.723 1.723 0 011.212 1.212c.294 1.075.283 3.317.283 3.317z"/></g><defs><clipPath id="clip0_32_7136"><path fill="#fff" transform="translate(.985)" d="M0 0h22v22H0z"/></clipPath></defs></svg>