<svg width="23" height="22" fill="none" xmlns="http://www.w3.org/2000/svg"><g clip-path="url(#clip0_32_7132)"><path d="M11.985 0c-6.065 0-11 4.935-11 11s4.935 11 11 11 11-4.935 11-11-4.934-11-11-11zm4.907 8.482c.005.11.008.22.008.33 0 3.345-2.546 7.202-7.204 7.202-1.43 0-2.76-.418-3.881-1.137a5.08 5.08 0 003.748-1.048 2.534 2.534 0 01-2.365-1.759 2.547 2.547 0 001.143-.043 2.532 2.532 0 01-2.03-2.482v-.032c.341.19.732.304 1.146.316a2.53 2.53 0 01-.783-3.38 7.189 7.189 0 005.218 2.646 2.532 2.532 0 014.314-2.31 5.054 5.054 0 001.609-.614 2.543 2.543 0 01-1.115 1.4 5.033 5.033 0 001.454-.397 5.093 5.093 0 01-1.262 1.308z" fill="#F89D33"/></g><defs><clipPath id="clip0_32_7132"><path fill="#fff" transform="translate(.985)" d="M0 0h22v22H0z"/></clipPath></defs></svg>