<svg width="19" height="19" viewBox="0 0 19 19" fill="none" xmlns="http://www.w3.org/2000/svg">
<path d="M17.7515 2.65913C17.7174 2.41416 17.5412 2.21265 17.3029 2.14642L9.66647 0.0227255C9.5576 -0.00757516 9.44261 -0.00757516 9.33366 0.0227255L1.69723 2.14642C1.45896 2.21265 1.28271 2.41408 1.2486 2.65913C1.2043 2.97762 0.193869 10.5028 2.78557 14.2463C5.3742 17.9854 9.193 18.9436 9.35427 18.9826C9.4022 18.9942 9.45105 18.9999 9.50006 18.9999C9.54907 18.9999 9.59792 18.9941 9.64585 18.9826C9.80721 18.9436 13.626 17.9854 16.2146 14.2463C18.8063 10.5029 17.7958 2.9777 17.7515 2.65913ZM14.4246 7.05239L9.21576 12.2612C9.09456 12.3824 8.93561 12.4431 8.77674 12.4431C8.61787 12.4431 8.45891 12.3825 8.33771 12.2612L5.11715 9.04065C5.00066 8.92425 4.93526 8.76629 4.93526 8.60162C4.93526 8.43695 5.00074 8.27899 5.11715 8.16259L5.75661 7.52313C5.99909 7.28073 6.39226 7.28064 6.63466 7.52313L8.77674 9.66521L12.9071 5.5348C13.0235 5.41831 13.1814 5.35291 13.3461 5.35291C13.5108 5.35291 13.6687 5.41831 13.7851 5.5348L14.4246 6.17426C14.6671 6.41674 14.6671 6.80991 14.4246 7.05239Z" fill="#F89D33"/>
</svg>
