<svg width="28" height="28" viewBox="0 0 28 28" fill="none" xmlns="http://www.w3.org/2000/svg">
<path d="M25.9088 8.6598L23.2544 7.07167L22.6564 4.59608C22.3909 3.49814 21.374 2.76618 20.2589 2.85393L17.2217 3.08899L15.4818 1.54849C14.6249 0.817295 13.3781 0.817296 12.5183 1.54773L10.7784 3.08894L7.74112 2.85388C6.63871 2.77654 5.60846 3.4988 5.37116 4.50599C5.32206 4.65864 4.43506 7.41581 4.49265 7.2367L2.09161 8.65898C1.12981 9.24962 0.744482 10.4353 1.17516 11.4783L2.21135 13.9895L1.17592 16.5001C0.744482 17.5438 1.13052 18.7288 2.09161 19.3186L4.7433 20.8956L5.34359 23.3824C5.60765 24.4796 6.62008 25.2078 7.74107 25.1245L10.7455 24.8925L12.5182 26.4511C12.9474 26.817 13.4734 27 14 27C14.5259 27 15.0526 26.817 15.4818 26.451L17.2544 24.8924L20.2589 25.1245C21.3941 25.2145 22.3923 24.4803 22.6564 23.3823L23.2544 20.9068L25.9088 19.3186C26.8692 18.7288 27.2545 17.5438 26.8245 16.5001L25.7883 13.9896L26.8253 11.4775C27.2552 10.4354 26.8699 9.24967 25.9088 8.6598ZM14 22.3789C9.37989 22.3789 5.62111 18.6201 5.62111 14C5.62111 9.37988 9.37989 5.6211 14 5.6211C18.6201 5.6211 22.3789 9.37988 22.3789 14C22.3789 18.6201 18.6201 22.3789 14 22.3789Z" fill="#F89D33"/>
<path d="M14 7.14453C10.2197 7.14453 7.14453 10.2197 7.14453 14C7.14453 17.7803 10.2197 20.8555 14 20.8555C17.7803 20.8555 20.8555 17.7803 20.8555 14C20.8555 10.2197 17.7803 7.14453 14 7.14453ZM18.3471 12.2534L13.7768 16.8237C13.628 16.9725 13.4331 17.0469 13.2383 17.0469C13.0434 17.0469 12.8485 16.9725 12.6997 16.8237L9.65287 13.7768C9.35534 13.4793 9.35534 12.9972 9.65287 12.6997C9.9504 12.4022 10.4325 12.4022 10.73 12.6997L13.2383 15.208L17.2701 11.1763C17.5676 10.8787 18.0497 10.8787 18.3472 11.1763C18.6447 11.4738 18.6447 11.9559 18.3471 12.2534Z" fill="#F89D33"/>
</svg>
