<svg width="28" height="28" viewBox="0 0 28 28" fill="none" xmlns="http://www.w3.org/2000/svg">
<g clip-path="url(#clip0_322_12490)">
<path d="M0.381676 14.0363C0.0806869 14.1472 -0.074456 14.4808 0.0351886 14.7829L0.401527 15.7909L3.19087 13.0015L0.381676 14.0363Z" fill="#F89D33"/>
<path d="M3.02148 22.996L4.70142 27.6158C4.75392 27.7617 4.86357 27.8807 5.00356 27.9448C5.08171 27.9809 5.1657 27.9996 5.2497 27.9996C5.31855 27.9996 5.3862 27.988 5.45155 27.9635L7.30533 27.2799L3.02148 22.996Z" fill="#F89D33"/>
<path d="M27.9649 19.0516L26.0423 13.7656L21.4284 18.3796L23.7149 17.5373C24.0148 17.4229 24.353 17.5793 24.4639 17.8826C24.5759 18.1848 24.4208 18.5208 24.1186 18.6316L21.2137 19.7026C21.1472 19.7271 21.0795 19.7387 21.0118 19.7387C20.775 19.7387 20.551 19.5929 20.4647 19.3572C20.4635 19.3537 20.4647 19.3502 20.4635 19.3467L15.5742 24.2361L27.6184 19.7982C27.9206 19.6874 28.0757 19.3537 27.9649 19.0516Z" fill="#F89D33"/>
<path d="M27.8298 9.50398L18.4968 0.170955C18.2693 -0.0565373 17.8994 -0.0565373 17.672 0.170955L0.172572 17.6704C-0.0549199 17.8978 -0.0549199 18.2677 0.172572 18.4952L9.50559 27.8282C9.61874 27.9426 9.76808 27.9997 9.91743 27.9997C10.0668 27.9997 10.2161 27.9426 10.3304 27.8294L27.8298 10.33C28.0573 10.1013 28.0573 9.73263 27.8298 9.50398ZM6.83054 16.1631L4.49727 18.4963C4.38292 18.6095 4.23363 18.6667 4.08428 18.6667C3.93494 18.6667 3.78565 18.6095 3.6713 18.4963C3.44381 18.2688 3.44381 17.899 3.6713 17.6715L6.00457 15.3382C6.23206 15.1107 6.6019 15.1107 6.82939 15.3382C7.05688 15.5658 7.05803 15.9344 6.83054 16.1631ZM16.9043 16.9039C16.4913 17.3169 15.9302 17.5152 15.306 17.5152C14.2747 17.5152 13.0696 16.9751 12.0617 15.9659C11.3243 15.2286 10.8063 14.3466 10.6046 13.4833C10.3806 12.5209 10.5649 11.6833 11.1237 11.1233C11.6825 10.5633 12.5201 10.379 13.4837 10.6041C14.3471 10.806 15.229 11.3228 15.9663 12.0612C17.5868 13.6805 17.9998 15.8084 16.9043 16.9039ZM24.3299 10.33L21.9966 12.6632C21.8823 12.7764 21.733 12.8336 21.5837 12.8336C21.4343 12.8336 21.285 12.7764 21.1707 12.6632C20.9432 12.4357 20.9432 12.0659 21.1707 11.8384L23.5039 9.50513C23.7314 9.27764 24.1013 9.27764 24.3288 9.50513C24.5563 9.73262 24.5574 10.1013 24.3299 10.33Z" fill="#F89D33"/>
</g>
<defs>
<clipPath id="clip0_322_12490">
<rect width="28" height="28" fill="white"/>
</clipPath>
</defs>
</svg>
