<svg width="32" height="32" viewBox="0 0 32 32" fill="none" xmlns="http://www.w3.org/2000/svg">
<path d="M22.1195 10.7711C22.5669 10.7711 22.7906 10.4737 22.7906 9.87911C22.7906 9.28317 22.568 8.98524 22.1231 8.98524C21.8999 8.98524 21.7317 9.06034 21.6182 9.21056C21.5049 9.36078 21.4482 9.5836 21.4482 9.87911C21.4482 10.1746 21.5043 10.3971 21.6165 10.5467C21.7286 10.6963 21.8963 10.7711 22.1195 10.7711Z" fill="#F89D33"/>
<path d="M25.0613 9.6456C25.1458 9.58669 25.1881 9.4938 25.1881 9.36721C25.1881 9.24169 25.1448 9.15248 25.0587 9.09941C24.9725 9.04625 24.8388 9.01979 24.658 9.01979H24.4878V9.7344H24.6688C24.8461 9.73448 24.977 9.70485 25.0613 9.6456Z" fill="#F89D33"/>
<path d="M32 7.50309V5.15103H0V7.50318H0.788807V24.497H0V26.8491H32V24.497H31.2113V7.50309H32ZM26.3729 8.56021H27.8962V9.01979H26.9337V9.60046H27.8292V10.06H26.9337V10.7421H27.8962V11.2052H26.3729V8.56021ZM23.9269 8.56021H24.6975C25.0569 8.56021 25.3229 8.62572 25.4953 8.75641C25.6678 8.88743 25.7542 9.08605 25.7542 9.35268C25.7542 9.50816 25.7113 9.64653 25.6257 9.76795C25.5401 9.88904 25.4188 9.98418 25.2621 10.0528C25.6602 10.6474 25.9195 11.0315 26.04 11.2052H25.4177L24.7862 10.1902H24.4877V11.2052H23.927V8.56021H23.9269ZM21.187 8.86682C21.4045 8.63473 21.7167 8.51865 22.1232 8.51865C22.5296 8.51865 22.8404 8.63556 23.0558 8.86957C23.2711 9.10366 23.3787 9.44006 23.3787 9.8792C23.3787 10.317 23.2701 10.6534 23.0531 10.8887C22.8359 11.1238 22.5248 11.2416 22.1196 11.2416C21.7143 11.2416 21.4032 11.1239 21.186 10.8887C20.9689 10.6535 20.8602 10.3158 20.8602 9.87544C20.8602 9.43539 20.9692 9.09907 21.187 8.86682ZM18.5736 8.56021H20.571V9.02688H19.8527V11.2051H19.2918V9.02688H18.5736V8.56021ZM10.0553 24.4969H4.00454V12.7446H10.0553V24.4969ZM12.5663 12.9109H16.4442V20.1717H12.5663V12.9109ZM13.6983 23.9641C13.197 23.9641 12.7907 23.5578 12.7907 23.0566C12.7907 22.5554 13.197 22.149 13.6983 22.149C14.1996 22.149 14.6059 22.5554 14.6059 23.0566C14.6059 23.5578 14.1995 23.9641 13.6983 23.9641ZM16.9253 23.9641C16.424 23.9641 16.0177 23.5578 16.0177 23.0566C16.0177 22.5554 16.424 22.149 16.9253 22.149C17.4265 22.149 17.8329 22.5554 17.8329 23.0566C17.8329 23.5578 17.4265 23.9641 16.9253 23.9641ZM18.095 11.0351C17.9232 11.1726 17.6841 11.2415 17.3777 11.2415C17.0954 11.2415 16.8457 11.1883 16.6286 11.0823V10.5612C16.8072 10.6409 16.9581 10.697 17.0819 10.7294C17.2055 10.7621 17.3186 10.7783 17.421 10.7783C17.5441 10.7783 17.6383 10.7548 17.7043 10.7077C17.77 10.6607 17.8029 10.5908 17.8029 10.4979C17.8029 10.4461 17.7884 10.3999 17.7594 10.3595C17.7305 10.3192 17.6881 10.2802 17.632 10.2429C17.5758 10.2055 17.4616 10.1457 17.2892 10.0638C17.1274 9.98769 17.0062 9.91483 16.9255 9.84481C16.8447 9.77488 16.7802 9.69351 16.732 9.60054C16.6837 9.50774 16.6596 9.39925 16.6596 9.27499C16.6596 9.04107 16.7389 8.85705 16.8976 8.72319C17.0562 8.58933 17.2754 8.5224 17.5552 8.5224C17.6927 8.5224 17.8238 8.53859 17.9487 8.57131C18.0735 8.60385 18.2041 8.64967 18.3404 8.70867L18.1594 9.14472C18.0184 9.08688 17.9017 9.04641 17.8095 9.02354C17.7171 9.00068 17.6265 8.98924 17.5372 8.98924C17.4309 8.98924 17.3496 9.01395 17.2928 9.06343C17.2362 9.11292 17.2078 9.17735 17.2078 9.25688C17.2078 9.30645 17.2193 9.3496 17.2422 9.38632C17.265 9.42312 17.3015 9.45867 17.3517 9.49305C17.4017 9.52744 17.5202 9.58919 17.7072 9.67849C17.9544 9.79674 18.1238 9.91525 18.2156 10.0341C18.3073 10.1529 18.3531 10.2984 18.3531 10.4709C18.3529 10.7095 18.267 10.8978 18.095 11.0351ZM20.1523 23.9641C19.6511 23.9641 19.2446 23.5578 19.2446 23.0566C19.2446 22.5554 19.6511 22.149 20.1523 22.149C20.6535 22.149 21.0599 22.5554 21.0599 23.0566C21.0599 23.5578 20.6534 23.9641 20.1523 23.9641ZM22.2199 20.1717H18.3418V12.9109H22.2199V20.1717ZM23.3793 23.9641C22.8781 23.9641 22.4717 23.5578 22.4717 23.0566C22.4717 22.5554 22.8781 22.149 23.3793 22.149C23.8807 22.149 24.2869 22.5554 24.2869 23.0566C24.2869 23.5578 23.8806 23.9641 23.3793 23.9641ZM26.6064 23.9641C26.1051 23.9641 25.6987 23.5578 25.6987 23.0566C25.6987 22.5554 26.1051 22.149 26.6064 22.149C27.1076 22.149 27.5139 22.5554 27.5139 23.0566C27.5139 23.5578 27.1075 23.9641 26.6064 23.9641ZM27.9955 20.1717H24.1175V12.9109H27.9955V20.1717Z" fill="#F89D33"/>
</svg>
