<svg width="21" height="18" viewBox="0 0 21 18" fill="none" xmlns="http://www.w3.org/2000/svg">
<g clip-path="url(#clip0_110_6034)">
<path d="M17.6142 7.85763C17.4768 7.87512 17.3359 7.88561 17.1879 7.88561C16.272 7.88561 15.4547 7.48695 14.8945 6.87148C14.3344 7.48695 13.5171 7.88561 12.5976 7.88561C11.6781 7.88561 10.8608 7.48695 10.3007 6.87148C9.74054 7.48695 8.92676 7.88561 8.00376 7.88561C7.08781 7.88561 6.2705 7.48695 5.71036 6.87148C5.15022 7.48695 4.33291 7.88561 3.41203 7.88561C3.269 7.88561 3.12492 7.87512 2.98506 7.85763C1.0362 7.59886 0.114082 5.31882 1.15633 3.68224L3.176 0.511522C3.35567 0.226483 3.6766 0.0523682 4.01938 0.0523682H16.589C16.9308 0.0523682 17.2513 0.226448 17.431 0.511522L19.4496 3.68224C20.4959 5.32232 19.5694 7.59886 17.6142 7.85763ZM17.7622 8.96618C17.8819 8.94869 18.0546 8.92072 18.1955 8.88575V15.7189C18.1955 16.9533 17.1844 17.9569 15.9408 17.9569H4.66759C3.4226 17.9569 2.41294 16.9533 2.41294 15.7189V8.88575C2.54928 8.92072 2.68984 8.94869 2.83463 8.96618H2.83886C3.02416 8.99066 3.21722 9.00464 3.41203 9.00464C3.85028 9.00464 4.27303 8.9382 4.66759 8.81581V13.4808H15.9408V8.8193C16.3354 8.9382 16.7546 9.00464 17.1879 9.00464C17.3852 9.00464 17.5754 8.99066 17.7622 8.96618Z" fill="#F89D33"/>
</g>
<defs>
<clipPath id="clip0_110_6034">
<rect width="20.2918" height="17.9046" fill="white" transform="translate(0 0.0522461)"/>
</clipPath>
</defs>
</svg>
