<svg width="28" height="28" viewBox="0 0 28 28" fill="none" xmlns="http://www.w3.org/2000/svg">
<path d="M24.6769 2.07141H12.6741C12.2556 2.07189 11.8544 2.23834 11.5585 2.53424C11.2626 2.83014 11.0962 3.23133 11.0957 3.64979V9.85525C11.0962 10.2737 11.2626 10.6749 11.5585 10.9708C11.8544 11.2667 12.2556 11.4332 12.6741 11.4337H13.9034V12.899C13.9024 13.0286 13.9404 13.1554 14.0122 13.2632C14.0841 13.3711 14.1866 13.4549 14.3066 13.5038C14.3857 13.5386 14.471 13.557 14.5574 13.5579C14.7308 13.5576 14.897 13.4887 15.0196 13.3661L16.952 11.4337H24.6769C25.0946 11.4322 25.4947 11.2652 25.7896 10.9694C26.0845 10.6736 26.2502 10.273 26.2504 9.85525V3.64979C26.2501 3.23209 26.0845 2.83149 25.7896 2.53567C25.4947 2.23985 25.0946 2.07292 24.6769 2.07141ZM15.4179 7.29343C15.3111 7.29247 15.207 7.25993 15.1187 7.19991C15.0304 7.13989 14.9618 7.05508 14.9216 6.95616C14.8814 6.85724 14.8714 6.74863 14.8928 6.64403C14.9142 6.53942 14.9661 6.44349 15.042 6.36833C15.1178 6.29317 15.2142 6.24214 15.319 6.22166C15.4238 6.20118 15.5323 6.21218 15.6309 6.25326C15.7294 6.29434 15.8136 6.36368 15.8728 6.45252C15.932 6.54137 15.9636 6.64576 15.9636 6.75253C15.9634 6.82392 15.9491 6.89456 15.9216 6.96041C15.894 7.02626 15.8537 7.08602 15.803 7.13626C15.7523 7.18651 15.6922 7.22626 15.6261 7.25323C15.56 7.2802 15.4892 7.29386 15.4179 7.29343ZM18.673 7.29343C18.5662 7.29246 18.4621 7.25992 18.3738 7.1999C18.2855 7.13988 18.2169 7.05506 18.1768 6.95614C18.1366 6.85722 18.1265 6.74861 18.148 6.64401C18.1694 6.53941 18.2213 6.44348 18.2971 6.36832C18.373 6.29316 18.4694 6.24213 18.5742 6.22166C18.679 6.20118 18.7875 6.21218 18.886 6.25326C18.9846 6.29435 19.0688 6.36368 19.128 6.45253C19.1872 6.54137 19.2188 6.64576 19.2188 6.75253C19.219 6.82404 19.205 6.89487 19.1776 6.96091C19.1502 7.02695 19.1099 7.08688 19.0591 7.13721C19.0083 7.18754 18.948 7.22727 18.8818 7.25409C18.8155 7.28091 18.7445 7.29428 18.673 7.29343H18.673ZM21.9282 7.29343C21.8214 7.29246 21.7173 7.25992 21.629 7.1999C21.5407 7.13988 21.4721 7.05506 21.4319 6.95614C21.3917 6.85722 21.3817 6.74861 21.4031 6.64401C21.4246 6.53941 21.4765 6.44348 21.5523 6.36832C21.6281 6.29316 21.7245 6.24213 21.8293 6.22166C21.9341 6.20118 22.0426 6.21218 22.1412 6.25326C22.2397 6.29435 22.3239 6.36368 22.3831 6.45253C22.4424 6.54137 22.474 6.64576 22.474 6.75253C22.4742 6.82404 22.4602 6.89487 22.4327 6.96091C22.4053 7.02695 22.3651 7.08688 22.3143 7.13721C22.2635 7.18754 22.2032 7.22727 22.1369 7.25409C22.0706 7.28091 21.9997 7.29428 21.9282 7.29343H21.9282Z" fill="#F89D33"/>
<path d="M9.14897 25.9286L10.3788 24.2636C10.7173 23.8059 11.1436 23.4202 11.6328 23.1292C12.122 22.8381 12.6643 22.6474 13.228 22.5682L18.1067 21.8951C18.8285 21.7958 19.5057 21.488 20.0551 21.0094L25.4905 16.2978C25.5999 16.2047 25.6868 16.088 25.7446 15.9565C25.8025 15.8251 25.8298 15.6822 25.8245 15.5386C25.8218 15.3943 25.7873 15.2523 25.7235 15.1228C25.6596 14.9934 25.568 14.8796 25.4551 14.7897C25.267 14.6451 25.0334 14.5728 24.7967 14.5858C24.5599 14.5988 24.3356 14.6963 24.1645 14.8605L21.6139 17.3605C21.18 17.7901 20.5996 18.0396 19.9893 18.0589L16.6492 18.1855C16.498 18.429 16.287 18.6299 16.0363 18.7689C15.7857 18.908 15.5036 18.9806 15.2169 18.98H11.6237C11.5904 18.9801 11.5574 18.9737 11.5266 18.961C11.4957 18.9484 11.4677 18.9298 11.4441 18.9062C11.4205 18.8827 11.4018 18.8548 11.389 18.824C11.3762 18.7933 11.3696 18.7603 11.3696 18.7269C11.3696 18.6936 11.3762 18.6606 11.389 18.6299C11.4018 18.5991 11.4205 18.5712 11.4441 18.5477C11.4677 18.5241 11.4957 18.5055 11.5266 18.4929C11.5574 18.4802 11.5904 18.4738 11.6237 18.4739H15.2169C15.5335 18.4733 15.837 18.3473 16.0608 18.1235C16.2847 17.8996 16.4107 17.5962 16.4113 17.2796C16.4071 16.9641 16.2799 16.6628 16.0568 16.4397C15.8337 16.2167 15.5324 16.0895 15.2169 16.0852H10.4496C9.67078 16.0856 8.8952 16.186 8.14187 16.3838L7.70664 16.5002C7.21239 16.63 6.75269 16.8669 6.36004 17.1939C5.96739 17.521 5.65136 17.9303 5.4343 18.3929L5.15091 18.9901C4.77047 19.8041 4.27257 20.5577 3.67314 21.227L1.75 23.3728L9.14897 25.9286Z" fill="#F89D33"/>
<path d="M19.4536 13.7522L16.6094 16.313C16.8118 16.5945 16.9198 16.9329 16.9181 17.2796C16.9188 17.4109 16.9035 17.5417 16.8726 17.6693L17.328 17.649L20.6732 14.6328C20.7431 14.4717 20.7558 14.2917 20.7093 14.1224C20.6628 13.9531 20.5599 13.8048 20.4175 13.702C20.2752 13.5992 20.102 13.5482 19.9267 13.5573C19.7514 13.5664 19.5845 13.6352 19.4536 13.7522H19.4536Z" fill="#F89D33"/>
<path d="M19.9695 17.5528C20.4538 17.5381 20.9147 17.3411 21.26 17.0012C21.26 17.0012 22.9655 15.321 22.9756 15.3109C23.0495 15.2385 23.1077 15.1517 23.1469 15.056C23.1861 14.9603 23.2053 14.8576 23.2033 14.7542C23.1987 14.5494 23.1132 14.3547 22.9655 14.2127C22.8225 14.0834 22.6373 14.0105 22.4446 14.0077C22.2518 14.0049 22.0646 14.0724 21.9179 14.1975L18.1172 17.6237L19.9695 17.5528Z" fill="#F89D33"/>
</svg>
