<svg width="32" height="32" viewBox="0 0 32 32" fill="none" xmlns="http://www.w3.org/2000/svg">
<g clip-path="url(#clip0_322_11177)">
<path d="M23.5627 0.999252H2.81251C1.26125 0.999252 0 2.26113 0 3.81176V18.8119C0 20.3632 1.26125 21.6244 2.81251 21.6244C4.78063 21.6244 5.04501 21.6244 5.04501 21.6244H5.62501V26.312C5.62501 27.1482 6.63876 27.5614 7.22501 26.9751C9.84252 24.357 8.00439 26.1957 12.3007 21.8994C12.477 21.7232 12.7145 21.6244 12.9638 21.6244H23.5627C25.1133 21.6244 26.3752 20.3632 26.3752 18.8119C26.3752 10.0581 26.3752 12.5868 26.3752 3.81176C26.3752 2.26113 25.1134 0.999252 23.5627 0.999252ZM4.68757 6.62426H17.9377C18.4558 6.62426 18.8752 7.04364 18.8752 7.56176C18.8752 8.07989 18.4558 8.49926 17.9377 8.49926H4.68757C4.16945 8.49926 3.75007 8.07989 3.75007 7.56176C3.75007 7.04364 4.16945 6.62426 4.68757 6.62426ZM14.1877 15.9994H4.68757C4.16945 15.9994 3.75007 15.58 3.75007 15.0619C3.75007 14.5438 4.16945 14.1244 4.68757 14.1244H14.1877C14.7058 14.1244 15.1252 14.5438 15.1252 15.0619C15.1252 15.58 14.7058 15.9994 14.1877 15.9994ZM21.6877 12.2493H4.68757C4.16945 12.2493 3.75007 11.83 3.75007 11.3118C3.75007 10.7937 4.16945 10.3743 4.68757 10.3743H21.6877C22.2059 10.3743 22.6252 10.7937 22.6252 11.3118C22.6252 11.83 22.2059 12.2493 21.6877 12.2493Z" fill="#F89D33"/>
<path d="M29.1877 4.74932H28.2627V18.812C28.2627 21.3966 26.1472 23.4996 23.5626 23.4996H13.4771L11.4771 25.3621H19.4244L24.7748 30.725C25.3626 31.3128 26.3751 30.9002 26.3751 30.0621V25.3621H29.1876C30.7385 25.3621 32.0001 24.1129 32.0001 22.5621V7.56189C32.0002 6.01095 30.7386 4.74932 29.1877 4.74932Z" fill="#F89D33"/>
</g>
<defs>
<clipPath id="clip0_322_11177">
<rect width="32" height="32" fill="white"/>
</clipPath>
</defs>
</svg>
