<svg width="28" height="28" viewBox="0 0 28 28" fill="none" xmlns="http://www.w3.org/2000/svg">
<path fill-rule="evenodd" clip-rule="evenodd" d="M19.9609 5.85242C22.3885 6.41574 23.3172 7.83527 24.4814 9.78906H19.9609V5.85242ZM5.7738 9.95312C6.24911 9.95312 6.59412 10.1826 6.59412 10.7188C6.59412 11.171 6.22818 11.5378 5.77615 11.5391H0.820312C0.367218 11.5391 0 11.9065 0 12.3594C0 12.8125 0.367218 13.1797 0.820312 13.1797H8.20312C8.66049 13.1797 9.02664 13.5467 9.02664 14C9.02664 14.4531 8.65942 14.8203 8.20633 14.8203H0.820312C0.367218 14.8203 0 15.1875 0 15.6406C0 16.0937 0.367218 16.4609 0.820312 16.4609H2.625V18.9219C2.625 19.375 2.99222 19.7422 3.44531 19.7422H5.09427C5.38821 21.1901 6.6676 22.2578 8.17578 22.2578C9.68396 22.2578 10.9633 21.1901 11.2573 19.7422H19.5865C19.8804 21.1901 21.1598 22.2578 22.668 22.2578C24.1761 22.2578 25.4555 21.1901 25.7495 19.7422H27.1797C27.6328 19.7422 28 19.375 28 18.9219V14C28 11.5931 25.4613 11.4333 25.459 11.4297H19.1406C18.6875 11.4297 18.3203 11.0625 18.3203 10.6094V5.6875H3.44531C2.99222 5.6875 2.625 6.05472 2.625 6.50781V8.3125H1.64062C1.18753 8.3125 0.820312 8.67972 0.820312 9.13281C0.820312 9.58591 1.18753 9.95312 1.64062 9.95312H5.7738ZM23.7314 18.0499C24.3186 18.6371 24.3186 19.5897 23.7314 20.1769C22.7867 21.1216 21.1641 20.4495 21.1641 19.1133C21.1641 17.7773 22.7867 17.1052 23.7314 18.0499ZM9.2392 18.0499C9.82645 18.6371 9.82645 19.5897 9.2392 20.1769C8.29456 21.1216 6.67188 20.4495 6.67188 19.1133C6.67188 17.7773 8.29456 17.1052 9.2392 18.0499Z" fill="#F89D33"/>
</svg>
