<svg width="32" height="32" viewBox="0 0 32 32" fill="none" xmlns="http://www.w3.org/2000/svg">
<path d="M26.9552 25.1459C26.3107 23.2278 23.742 22.0272 21.9107 21.2224C21.1932 20.9082 19.207 20.375 18.9683 19.4717C18.8828 19.1462 18.8944 18.8394 18.9644 18.5453C18.854 18.5664 18.742 18.5789 18.6262 18.5789H17.4329C16.4803 18.5789 15.7062 17.8038 15.7062 16.8518C15.7062 15.9005 16.4806 15.127 17.4329 15.127H18.6262C19.0204 15.127 19.3942 15.2605 19.6956 15.4986C20.1376 15.4397 20.5638 15.3453 20.9612 15.2214C21.4832 14.128 21.8902 12.8205 21.9814 11.695C22.3708 6.87968 19.4188 4.0624 15.1862 4.54944C12.1088 4.90368 10.2704 7.1984 10.0716 10.1526C9.87067 13.1638 10.9872 15.3878 12.1731 17.0192C12.6924 17.7325 13.238 18.191 13.1542 19.0506C13.0569 20.0669 11.9702 20.3501 11.1929 20.6624C10.272 21.0323 9.27995 21.5936 8.81147 21.8531C7.19771 22.7443 5.42651 23.8176 5.02843 25.2858C4.14683 28.5395 7.12411 29.5251 9.58204 29.9802C11.6915 30.3693 14.07 30.4 16.0265 30.4C19.5654 30.4 25.9289 30.2582 26.9552 27.5981C27.247 26.8432 27.1219 25.6403 26.9552 25.1459Z" fill="#F89D33"/>
<path d="M19.3817 16.3658C19.2198 16.119 18.943 15.9552 18.6272 15.9552H17.4339C16.9359 15.9552 16.5343 16.3574 16.5343 16.8528C16.5343 17.3501 16.9359 17.753 17.4339 17.753H18.6272C18.9756 17.753 19.2713 17.5542 19.4204 17.2669C21.0841 17.136 22.5312 16.6278 23.5468 15.8774C23.7801 16.0278 24.056 16.1158 24.3536 16.1158H24.4284C25.2579 16.1158 25.9286 15.4445 25.9286 14.6141V11.6163C25.9286 11.0192 25.5785 10.504 25.0736 10.2646C24.8534 5.45088 20.8684 1.6 16.0006 1.6C11.1327 1.6 7.14715 5.45088 6.92795 10.2646C6.42203 10.5043 6.07227 11.0192 6.07227 11.6163V14.6141C6.07227 15.4445 6.74363 16.1158 7.57115 16.1158H7.64699C8.47515 16.1158 9.14683 15.4445 9.14683 14.6141V11.6163C9.14683 11.0278 8.80667 10.5203 8.31227 10.2749C8.52635 6.21888 11.8921 2.98592 16.0006 2.98592C20.1075 2.98592 23.4748 6.21888 23.688 10.2749C23.1942 10.5206 22.8544 11.0278 22.8544 11.6163V14.6141C22.8544 14.8131 22.8931 14.9984 22.9612 15.1715C22.087 15.7971 20.8144 16.2429 19.3817 16.3658Z" fill="#F89D33"/>
</svg>
