<svg width="16" height="16" viewBox="0 0 16 16" fill="none" xmlns="http://www.w3.org/2000/svg">
<path d="M7.98568 0.666504C6.53528 0.666504 5.11746 1.0966 3.9115 1.90239C2.70554 2.70819 1.76561 3.8535 1.21056 5.1935C0.655521 6.53349 0.510297 8.00798 0.793255 9.43051C1.07621 10.853 1.77465 12.1597 2.80023 13.1853C3.82582 14.2109 5.13249 14.9093 6.55502 15.1923C7.97754 15.4752 9.45203 15.33 10.792 14.775C12.132 14.2199 13.2773 13.28 14.0831 12.074C14.8889 10.8681 15.319 9.45024 15.319 7.99984C15.3167 6.05563 14.5434 4.19169 13.1686 2.81692C11.7938 1.44215 9.9299 0.668798 7.98568 0.666504ZM10.457 10.4712C10.332 10.5962 10.1625 10.6664 9.98568 10.6664C9.8089 10.6664 9.63936 10.5962 9.51435 10.4712L7.51435 8.47118C7.38931 8.34618 7.31905 8.17664 7.31901 7.99984V3.99984C7.31901 3.82303 7.38925 3.65346 7.51428 3.52844C7.6393 3.40341 7.80887 3.33317 7.98568 3.33317C8.16249 3.33317 8.33206 3.40341 8.45708 3.52844C8.58211 3.65346 8.65235 3.82303 8.65235 3.99984V7.72384L10.457 9.52851C10.582 9.65353 10.6522 9.82307 10.6522 9.99985C10.6522 10.1766 10.582 10.3462 10.457 10.4712Z" fill="#F89D33"/>
</svg>
