<svg width="16" height="16" viewBox="0 0 16 16" fill="none" xmlns="http://www.w3.org/2000/svg">
<path d="M8.0013 0.666504C6.55091 0.666504 5.13308 1.0966 3.92712 1.90239C2.72116 2.70819 1.78123 3.8535 1.22619 5.1935C0.671146 6.53349 0.525922 8.00798 0.80888 9.43051C1.09184 10.853 1.79027 12.1597 2.81586 13.1853C3.84144 14.2109 5.14812 14.9093 6.57064 15.1923C7.99317 15.4752 9.46766 15.33 10.8076 14.775C12.1476 14.2199 13.293 13.28 14.0987 12.074C14.9045 10.8681 15.3346 9.45024 15.3346 7.99984C15.3323 6.05563 14.559 4.19169 13.1842 2.81692C11.8095 1.44215 9.94552 0.668798 8.0013 0.666504ZM10.4726 10.4712C10.3476 10.5962 10.1781 10.6664 10.0013 10.6664C9.82453 10.6664 9.65499 10.5962 9.52997 10.4712L7.52997 8.47118C7.40494 8.34618 7.33468 8.17664 7.33464 7.99984V3.99984C7.33464 3.82303 7.40488 3.65346 7.5299 3.52844C7.65492 3.40341 7.82449 3.33317 8.0013 3.33317C8.17812 3.33317 8.34768 3.40341 8.47271 3.52844C8.59773 3.65346 8.66797 3.82303 8.66797 3.99984V7.72384L10.4726 9.52851C10.5976 9.65353 10.6678 9.82307 10.6678 9.99985C10.6678 10.1766 10.5976 10.3462 10.4726 10.4712Z" fill="#F89D33"/>
</svg>
