<svg width="16" height="16" viewBox="0 0 16 16" fill="none" xmlns="http://www.w3.org/2000/svg">
<path fill-rule="evenodd" clip-rule="evenodd" d="M8 0C3.5875 0 0 3.5875 0 8C0 12.4125 3.5875 16 8 16C12.4125 16 16 12.4125 16 8C16 3.5875 12.4125 0 8 0Z" fill="#59B67E"/>
<path fill-rule="evenodd" clip-rule="evenodd" d="M11.8691 5.30317C12.0629 5.49692 12.0629 5.81567 11.8691 6.00942L7.18164 10.6969C7.08477 10.7938 6.95664 10.8438 6.82852 10.8438C6.70039 10.8438 6.57227 10.7938 6.47539 10.6969L4.13164 8.35317C3.93789 8.15942 3.93789 7.84067 4.13164 7.64692C4.32539 7.45317 4.64414 7.45317 4.83789 7.64692L6.82852 9.63755L11.1629 5.30317C11.3566 5.1063 11.6754 5.1063 11.8691 5.30317Z" fill="white"/>
</svg>
