<svg width="13" height="13" viewBox="0 0 13 13" fill="none" xmlns="http://www.w3.org/2000/svg">
<g clip-path="url(#clip0_322_16309)">
<path d="M12.9535 0.360085C13.0581 0.612453 13.015 0.827888 12.8242 1.00639L8.27239 5.55824V12.4091C8.27239 12.6676 8.15236 12.8492 7.9123 12.9538C7.83228 12.9846 7.75534 13 7.68148 13C7.51528 13 7.37679 12.9415 7.26599 12.8246L4.90236 10.4609C4.78541 10.344 4.72693 10.2055 4.72693 10.0455V5.55824L0.175086 1.00639C-0.0157286 0.827888 -0.0588157 0.612453 0.0458244 0.360085C0.150465 0.120028 0.332046 0 0.590569 0H12.4088C12.6673 0 12.8489 0.120028 12.9535 0.360085Z" fill="white"/>
</g>
<defs>
<clipPath id="clip0_322_16309">
<rect width="13" height="13" fill="white"/>
</clipPath>
</defs>
</svg>
