<svg width="22" height="22" viewBox="0 0 22 22" fill="none" xmlns="http://www.w3.org/2000/svg">
<path d="M13.1055 11C13.1055 12.1628 12.1628 13.1055 11 13.1055C9.83716 13.1055 8.89453 12.1628 8.89453 11C8.89453 9.83716 9.83716 8.89453 11 8.89453C12.1628 8.89453 13.1055 9.83716 13.1055 11Z" fill="url(#paint0_linear_322_12254)"/>
<path d="M15.9227 7.27483C15.8215 7.00056 15.66 6.75232 15.4502 6.54855C15.2464 6.33875 14.9983 6.17728 14.7239 6.07607C14.5013 5.98962 14.167 5.88673 13.5512 5.8587C12.885 5.82832 12.6852 5.82178 10.9987 5.82178C9.31203 5.82178 9.11229 5.82816 8.44627 5.85854C7.83044 5.88673 7.49593 5.98962 7.27353 6.07607C6.9991 6.17728 6.75085 6.33875 6.54726 6.54855C6.33745 6.75232 6.17598 7.0004 6.0746 7.27483C5.98816 7.49739 5.88527 7.83191 5.85724 8.44774C5.82686 9.11375 5.82031 9.31349 5.82031 11.0002C5.82031 12.6867 5.82686 12.8864 5.85724 13.5526C5.88527 14.1685 5.98816 14.5028 6.0746 14.7254C6.17598 14.9998 6.33728 15.2479 6.54709 15.4516C6.75085 15.6615 6.99893 15.8229 7.27336 15.9241C7.49593 16.0107 7.83044 16.1136 8.44627 16.1417C9.11229 16.172 9.31186 16.1784 10.9986 16.1784C12.6854 16.1784 12.8851 16.172 13.551 16.1417C14.1668 16.1136 14.5013 16.0107 14.7239 15.9241C15.2748 15.7116 15.7102 15.2762 15.9227 14.7254C16.0091 14.5028 16.112 14.1685 16.1402 13.5526C16.1706 12.8864 16.177 12.6867 16.177 11.0002C16.177 9.31349 16.1706 9.11375 16.1402 8.44774C16.1122 7.83191 16.0093 7.49739 15.9227 7.27483ZM10.9987 14.2435C9.20729 14.2435 7.75508 12.7914 7.75508 11C7.75508 9.20859 9.20729 7.75655 10.9987 7.75655C12.79 7.75655 14.2422 9.20859 14.2422 11C14.2422 12.7914 12.79 14.2435 10.9987 14.2435ZM14.3704 8.38631C13.9518 8.38631 13.6124 8.04692 13.6124 7.62831C13.6124 7.2097 13.9518 6.87032 14.3704 6.87032C14.789 6.87032 15.1284 7.2097 15.1284 7.62831C15.1283 8.04692 14.789 8.38631 14.3704 8.38631Z" fill="url(#paint1_linear_322_12254)"/>
<path d="M11 0C4.9258 0 0 4.9258 0 11C0 17.0742 4.9258 22 11 22C17.0742 22 22 17.0742 22 11C22 4.9258 17.0742 0 11 0ZM17.2783 13.6041C17.2478 14.2765 17.1408 14.7356 16.9847 15.1374C16.6566 15.9859 15.9859 16.6566 15.1374 16.9847C14.7358 17.1408 14.2765 17.2476 13.6043 17.2783C12.9307 17.309 12.7156 17.3164 11.0002 17.3164C9.28461 17.3164 9.0696 17.309 8.39586 17.2783C7.72363 17.2476 7.2644 17.1408 6.86275 16.9847C6.44112 16.8261 6.05943 16.5775 5.74388 16.2561C5.42262 15.9407 5.17404 15.5589 5.01543 15.1374C4.85933 14.7358 4.75241 14.2765 4.72186 13.6043C4.69081 12.9306 4.68359 12.7154 4.68359 11C4.68359 9.28461 4.69081 9.06943 4.72169 8.39586C4.75224 7.72346 4.85899 7.2644 5.01509 6.86258C5.17371 6.44112 5.42245 6.05927 5.74388 5.74388C6.05927 5.42245 6.44112 5.17387 6.86258 5.01526C7.2644 4.85916 7.72346 4.75241 8.39586 4.72169C9.06943 4.69098 9.28461 4.68359 11 4.68359C12.7154 4.68359 12.9306 4.69098 13.6041 4.72186C14.2765 4.75241 14.7356 4.85916 15.1374 5.01509C15.5589 5.17371 15.9407 5.42245 16.2563 5.74388C16.5775 6.05943 16.8263 6.44112 16.9847 6.86258C17.141 7.2644 17.2478 7.72346 17.2785 8.39586C17.3092 9.06943 17.3164 9.28461 17.3164 11C17.3164 12.7154 17.3092 12.9306 17.2783 13.6041Z" fill="url(#paint2_linear_322_12254)"/>
<defs>
<linearGradient id="paint0_linear_322_12254" x1="11" y1="8.89453" x2="11" y2="13.1055" gradientUnits="userSpaceOnUse">
<stop stop-color="#4F33F8"/>
<stop offset="0.34375" stop-color="#A65AB2"/>
<stop offset="0.640625" stop-color="#D349D6"/>
<stop offset="1" stop-color="#F89D33"/>
</linearGradient>
<linearGradient id="paint1_linear_322_12254" x1="10.9986" y1="5.82178" x2="10.9986" y2="16.1784" gradientUnits="userSpaceOnUse">
<stop stop-color="#4F33F8"/>
<stop offset="0.34375" stop-color="#A65AB2"/>
<stop offset="0.640625" stop-color="#D349D6"/>
<stop offset="1" stop-color="#F89D33"/>
</linearGradient>
<linearGradient id="paint2_linear_322_12254" x1="11" y1="0" x2="11" y2="22" gradientUnits="userSpaceOnUse">
<stop stop-color="#4F33F8"/>
<stop offset="0.34375" stop-color="#A65AB2"/>
<stop offset="0.640625" stop-color="#D349D6"/>
<stop offset="1" stop-color="#F89D33"/>
</linearGradient>
</defs>
</svg>
