<svg width="292" height="57" viewBox="0 0 292 57" fill="none" xmlns="http://www.w3.org/2000/svg">
<g clip-path="url(#clip0_322_12717)">
<path d="M75.959 56.4609V24.8448H82.0204V51.0752H97.9258V56.4609H75.959Z" fill="black"/>
<path d="M112.865 51.266C114.125 51.3121 115.372 51.0039 116.465 50.3767C117.434 49.8099 118.249 49.0144 118.839 48.0597C119.47 47.0695 119.903 45.9664 120.114 44.8115C120.373 43.5558 120.501 42.2766 120.495 40.9945V24.8448H126.515V40.9601C126.529 43.0222 126.263 45.0768 125.725 47.0673C125.271 48.8774 124.448 50.5744 123.309 52.0523C122.195 53.5032 120.748 54.6644 119.091 55.438C117.146 56.3151 115.028 56.7418 112.896 56.6861C110.407 56.6861 108.284 56.2548 106.525 55.3922C104.875 54.5677 103.433 53.3802 102.308 51.9187C101.198 50.4117 100.393 48.7029 99.9372 46.8879C99.466 44.9475 99.2327 42.9569 99.2425 40.9601V24.8448H105.304V40.9601C105.301 42.2596 105.419 43.5566 105.655 44.8344C105.891 45.9834 106.322 47.0834 106.93 48.0865C107.535 49.0274 108.346 49.8195 109.3 50.4034C110.39 51.0046 111.621 51.3025 112.865 51.266Z" fill="black"/>
<path d="M138.694 36.2003V56.4609H132.633V24.8448H137.335L153.588 45.5978V24.8906H159.653V56.4609H154.729L138.694 36.2003Z" fill="black"/>
<path d="M179.451 56.6861C177.298 56.7141 175.167 56.2576 173.214 55.3502C171.405 54.4589 169.78 53.2352 168.424 51.7431C167.1 50.2168 166.058 48.4667 165.348 46.5749C164.623 44.6852 164.252 42.6786 164.252 40.6547C164.246 38.5812 164.634 36.5253 165.397 34.5972C166.157 32.7147 167.242 30.9808 168.603 29.4748C169.98 27.9912 171.639 26.7962 173.482 25.9593C175.391 25.0594 177.478 24.6027 179.589 24.6234C181.725 24.5949 183.836 25.0833 185.742 26.0471C187.567 26.9297 189.195 28.1722 190.528 29.7C191.851 31.2205 192.89 32.9657 193.597 34.8529C195.08 38.6963 195.064 42.9568 193.551 46.7887C192.812 48.6571 191.741 50.3768 190.391 51.8653C189.021 53.3366 187.38 54.5302 185.558 55.3807C183.642 56.2562 181.558 56.7018 179.451 56.6861ZM170.401 40.6547C170.394 41.9986 170.596 43.3353 171 44.6168C171.382 45.8399 171.976 46.9861 172.756 48.0025C173.54 48.9741 174.512 49.7766 175.615 50.3614C176.814 50.9763 178.146 51.2869 179.493 51.266C180.836 51.2963 182.165 50.9906 183.36 50.3766C184.478 49.7768 185.453 48.9406 186.215 47.9261C187.007 46.9181 187.604 45.7712 187.975 44.5443C188.38 43.2926 188.587 41.9855 188.589 40.67C188.591 39.3205 188.368 37.9802 187.929 36.7042C187.545 35.4753 186.934 34.3294 186.127 33.3261C185.366 32.3452 184.389 31.5525 183.272 31.0092C182.107 30.4019 180.807 30.0961 179.493 30.1198C178.133 30.0881 176.786 30.4033 175.581 31.0359C174.459 31.6102 173.482 32.4326 172.726 33.4406C171.945 34.4555 171.349 35.6003 170.966 36.8225C170.59 38.065 170.399 39.3565 170.401 40.6547Z" fill="#F88E33"/>
<path d="M225.584 24.8448V56.4609H219.557V42.9679H205.411V56.4609H199.346V24.8448H205.411V37.6241H219.557V24.8448H225.584Z" fill="black"/>
<path d="M245.395 56.6861C243.241 56.7137 241.108 56.2571 239.154 55.3502C237.346 54.4583 235.721 53.2347 234.364 51.7431C233.046 50.216 232.012 48.4658 231.31 46.5749C230.585 44.6855 230.212 42.6788 230.211 40.6547C230.205 38.5812 230.593 36.5254 231.356 34.5972C232.116 32.7147 233.201 30.9808 234.562 29.4748C235.938 27.991 237.595 26.7959 239.437 25.9593C241.346 25.0603 243.434 24.6036 245.544 24.6234C247.68 24.5949 249.791 25.0833 251.697 26.0471C253.515 26.9319 255.137 28.1743 256.464 29.7C257.794 31.2197 258.841 32.9648 259.556 34.8529C261.039 38.6963 261.023 42.9568 259.51 46.7887C258.771 48.6571 257.7 50.3768 256.35 51.8653C254.98 53.3366 253.339 54.5302 251.517 55.3807C249.597 56.258 247.507 56.7035 245.395 56.6861ZM236.345 40.6547C236.34 41.9995 236.548 43.3366 236.959 44.6168C237.341 45.8399 237.935 46.9861 238.715 48.0025C239.497 48.974 240.469 49.7765 241.57 50.3614C242.765 50.9728 244.091 51.2834 245.433 51.266C246.776 51.2963 248.105 50.9906 249.3 50.3766C250.417 49.7757 251.391 48.9397 252.155 47.9261C252.947 46.9181 253.543 45.7712 253.915 44.5443C254.319 43.2926 254.527 41.9855 254.529 40.67C254.531 39.3205 254.308 37.9802 253.869 36.7042C253.485 35.4762 252.875 34.3306 252.071 33.3261C251.309 32.3452 250.332 31.5525 249.216 31.0092C248.05 30.4022 246.751 30.0965 245.437 30.1198C244.078 30.0887 242.732 30.404 241.528 31.0359C240.406 31.6102 239.43 32.4326 238.673 33.4406C237.892 34.4555 237.296 35.6003 236.914 36.8225C236.536 38.0649 236.344 39.3563 236.345 40.6547Z" fill="#F88E33"/>
<path d="M265.281 56.4609V24.8448H276.618C278.905 24.7952 281.178 25.2202 283.294 26.0929C285.131 26.8552 286.78 28.0094 288.126 29.4748C289.434 30.9323 290.422 32.6472 291.027 34.5094C291.683 36.4781 292.009 38.5416 291.993 40.6166C292.022 42.847 291.65 45.0645 290.893 47.1627C290.238 49.0221 289.197 50.7221 287.84 52.1515C286.452 53.5448 284.791 54.6364 282.962 55.3578C280.942 56.1241 278.796 56.501 276.637 56.4686L265.281 56.4609ZM285.893 40.609C285.908 39.186 285.7 37.7694 285.278 36.4103C284.906 35.2021 284.293 34.0817 283.477 33.1162C282.674 32.1863 281.667 31.4547 280.534 30.9787C279.299 30.4537 277.967 30.1936 276.625 30.2153H271.35V51.0561H276.625C277.986 51.0832 279.337 50.8095 280.58 50.2545C281.7 49.7577 282.691 49.0108 283.477 48.0712C284.288 47.0852 284.9 45.9509 285.278 44.7313C285.695 43.3972 285.903 42.0066 285.893 40.609Z" fill="black"/>
<path d="M8.80912 13.9396C8.7366 13.7907 8.42743 13.0693 8.09153 13.2907C7.86791 13.5493 7.71069 13.8585 7.63349 14.1915C7.56013 14.5233 7.5693 14.868 7.66021 15.1954C7.98001 15.8737 8.50471 16.4344 9.16029 16.7985C9.3206 16.7985 9.54199 16.4932 9.62596 16.2603C9.70994 16.0275 9.20991 15.7603 8.90455 15.1152C8.59919 14.4702 8.88546 14.0961 8.80912 13.9396ZM13.1605 5.88574C12.4845 6.30883 11.9025 6.86615 11.4505 7.52323C11.4505 7.68354 12.2139 8.20647 12.4773 8.24464C12.7406 8.28281 12.817 7.79423 13.2826 7.32856C13.7483 6.86289 14.5041 7.21787 14.5041 7.21787C14.5041 7.21787 15.0804 6.60715 14.9698 6.26362C14.8591 5.92009 13.8934 5.58038 13.1605 5.88574ZM20.2945 11.3097C20.1131 12.4698 19.8581 13.6172 19.5311 14.745C18.9203 16.1267 17.5882 17.6879 17.5882 17.9589C17.5882 18.2299 18.0539 18.2986 18.3936 18.2261C18.7333 18.1536 19.386 17.4207 20.2258 15.7832C20.841 14.4862 21.2283 13.093 21.3709 11.6647C21.325 11.4318 20.283 11.283 20.283 11.283L20.2945 11.3097ZM21.9816 28.6503C20.8312 29.9258 19.7616 31.272 18.7791 32.681C19.1602 32.8644 19.5826 32.9446 20.0044 32.9139C21.0747 31.7229 22.0081 30.4157 22.787 29.0167C22.703 28.7953 22.1304 28.635 21.9816 28.635V28.6503ZM48.857 2.22142C48.4808 1.59343 47.9377 1.08209 47.2882 0.744246C46.8764 0.559023 46.4261 0.475252 45.9752 0.499958C45.5245 0.525352 45.0864 0.658551 44.6979 0.888363C44.3093 1.11818 43.9816 1.43789 43.7422 1.82064C43.5007 2.20148 43.3541 2.63477 43.3147 3.08406C43.2961 3.75264 43.4386 4.41589 43.7303 5.01779C44.0219 5.61969 44.4541 6.14256 44.9904 6.54226L42.8987 21.0468C41.7704 21.0895 40.6916 21.521 39.8451 22.2683C38.964 23.1094 38.451 24.2645 38.4175 25.4822L35.6197 25.2226C34.3944 25.1272 31.4401 24.8218 31.4401 24.8218C31.4066 24.3569 31.3208 23.8972 31.1843 23.4515C30.9744 22.8904 29.9591 22.3293 29.9591 22.3293L31.1843 17.0924C31.681 16.816 32.0747 16.3861 32.3065 15.8672C32.4361 15.577 32.4975 15.261 32.4859 14.9435C32.4718 14.6243 32.3857 14.3124 32.234 14.0312C32.0813 13.7515 31.8657 13.511 31.6042 13.3289C31.345 13.1432 31.0454 13.0215 30.7301 12.9739C30.2288 12.7881 29.6794 12.7776 29.1714 12.9439C28.6634 13.1103 28.2266 13.4437 27.9323 13.89L26.1116 13.4128C26.1116 13.4128 26.7719 7.91638 24.8901 5.42388C23.0083 2.93138 17.5577 1.75575 13.7941 2.06111C10.0306 2.36647 7.47699 6.95068 7.47699 6.95068L6.06089 6.33996C6.15446 5.87256 6.15446 5.39125 6.06089 4.92385C5.96198 4.45826 5.77123 4.01707 5.49979 3.62608C4.5799 2.40845 1.71333 3.28255 0.793438 4.46963C-0.126457 5.65672 -0.534875 7.4507 1.17514 8.59962C1.70723 8.91696 2.31523 9.0845 2.93477 9.0845C3.55431 9.0845 4.16231 8.91696 4.69441 8.59962L5.91584 9.5157C5.35429 10.2134 4.88951 10.9838 4.53409 11.8059C3.89286 13.5452 3.89286 15.4562 4.53409 17.1955C5.53172 19.3747 7.16759 21.1996 9.22518 22.4286C11.1337 23.2721 16.7027 24.8753 20.8327 22.1996C23.3598 20.4688 25.1445 17.8518 25.8329 14.8671L27.7414 15.1725C27.8149 15.5481 27.9436 15.9108 28.1231 16.2489C28.4103 16.7412 28.8347 17.1391 29.3445 17.394L28.3483 22.211C27.7491 22.3676 27.1923 22.6558 26.7185 23.0546C26.1575 23.4668 25.7323 24.0369 25.497 24.6921C24.273 24.6921 23.0516 24.757 21.8327 24.8867C20.3 25.1449 18.8931 25.8952 17.8249 27.0242C16.4927 28.2457 12.3246 35.2002 12.3246 35.2002C11.5662 35.3152 10.8243 35.5202 10.1145 35.811C7.57802 36.8589 5.46835 38.7306 4.12567 41.1242C3.09415 42.9984 2.65811 45.1424 2.87564 47.2706C3.09317 49.3989 3.95394 51.4103 5.34329 53.0371C8.20986 55.7318 8.97326 56.4952 17.279 56.8121H47.9486C53.0939 56.8121 55.8192 56.312 57.8346 54.5638C59.4009 53.1824 60.531 51.3746 61.0868 49.3615C61.6426 47.3483 61.6001 45.2168 60.9645 43.2274C59.3614 37.5821 55.2696 36.9217 55.2696 36.9217C54.6781 35.7453 53.9873 34.6216 53.2046 33.5628C51.4369 31.2124 49.5341 28.9668 47.5058 26.8372C47.5359 25.6643 47.384 24.4939 47.0554 23.3676C46.7784 22.7957 46.3889 22.2855 45.9103 21.8675C45.4388 21.4469 44.8869 21.1262 44.2881 20.9247L46.3569 7.18351C47.2527 7.10232 48.0916 6.70922 48.7272 6.07277C49.104 5.50604 49.3157 4.84567 49.3386 4.16551C49.3615 3.48535 49.1948 2.81223 48.857 2.22142ZM4.66769 6.22545C4.66821 6.54424 4.5782 6.85662 4.40813 7.12626C4.23742 7.39529 3.99569 7.61193 3.70962 7.75225C3.42203 7.89415 3.10008 7.95155 2.78117 7.91777C2.46226 7.88398 2.15948 7.76041 1.908 7.5614C0.27051 6.64532 1.908 4.6643 2.78591 4.5078C4.41195 4.22916 4.86617 5.046 4.69441 6.23308L4.66769 6.22545ZM13.5766 4.1032C15.298 3.64898 17.1683 3.7215 17.5119 5.89719C17.5935 7.82156 17.3192 9.74446 16.7027 11.5692L9.26335 7.69499C9.26335 7.69499 11.8665 4.54215 13.5766 4.1032ZM7.46936 8.5729C7.72892 8.5729 14.569 11.825 14.569 12.241C14.569 12.6571 13.7636 14.5312 13.275 14.4511C11.2409 12.859 9.30109 11.1499 7.46554 9.33248C7.08384 8.98895 7.08384 8.51183 7.43119 8.55L7.46936 8.5729ZM7.35867 17.3978C4.8051 15.4549 7.35867 11.7868 7.66403 11.5921C7.66403 11.5921 13.3895 16.4054 13.3246 16.5542C13.2597 16.7031 9.88933 19.3254 7.32431 17.3711L7.35867 17.3978ZM22.4511 17.4589C20.2716 20.6231 18.2791 21.356 16.1912 21.4934C14.7903 21.6518 13.3719 21.5219 12.023 21.1117C11.523 20.8789 11.1451 20.3063 11.5726 20.1575C14.228 18.9318 16.411 16.8733 17.7905 14.2946C19.928 10.2486 19.9662 5.81321 20.2334 5.51549C21.0483 5.62505 21.8092 5.98448 22.4114 6.54431C23.0136 7.10414 23.4275 7.83685 23.5962 8.6416C24.1954 11.2257 24.6077 14.2793 22.4472 17.4589H22.4511ZM57.7239 42.0785C59.6667 45.5138 58.411 51.2392 55.4337 53.1859C52.4564 55.1326 33.5509 54.6745 25.7299 54.4073C17.9088 54.1402 10.3359 54.1974 7.46173 51.8156C4.58753 49.4338 4.64097 45.3267 6.5571 42.4563C8.47323 39.586 10.9848 36.9942 18.9776 36.5438C28.0674 36.2473 37.1667 36.4473 46.2347 37.1431C53.2122 37.9599 55.7658 38.6432 57.7201 42.0785H57.7239ZM47.1775 29.6771C48.4715 31.4367 51.2579 35.3338 50.9526 35.3682C50.6431 35.3979 50.3308 35.3614 50.0365 35.2613C49.8418 35.185 46.6012 30.9825 46.2958 30.9481C45.9905 30.9138 45.0744 31.2878 45.2347 31.5588C45.395 31.8298 48.6318 34.9941 48.399 35.0285C47.843 35.1048 47.2793 35.1048 46.7233 35.0285C46.5287 34.9178 44.0858 31.5932 43.8644 31.5207C43.643 31.4481 42.5323 31.7879 42.7193 32.0589C42.9063 32.3299 45.6278 34.9178 45.3912 35.0399C44.9286 35.1734 44.4377 35.1734 43.9751 35.0399C43.7422 34.8949 42.1773 32.5245 41.8376 32.4482C41.4979 32.3719 40.6161 32.681 40.8108 33.0246C41.0055 33.3681 42.4101 34.8949 42.2269 34.8949L15.2255 34.6506C15.6072 34.2345 19.2715 28.0892 22.0197 27.1693C24.768 26.2494 37.3297 27.2456 41.265 27.6235C45.2003 28.0014 45.8836 27.9174 47.1775 29.6771ZM46.0324 25.9021C43.9757 25.9939 41.9168 25.7751 39.9253 25.2532C40.027 24.4289 40.4306 23.6716 41.0579 23.1274C41.6853 22.5832 42.492 22.2907 43.3224 22.3064C45.9943 22.4286 46.647 25.6578 46.0363 25.8868L46.0324 25.9021ZM45.6507 5.58038C44.6621 4.89713 44.5858 2.41609 46.0668 1.91606C46.8951 1.63361 48.0096 2.33211 48.0555 3.74822C48.1013 5.16432 46.689 6.26362 45.6622 5.58038H45.6507ZM13.5384 38.8417C7.43119 40.4028 6.20975 45.7542 7.73655 48.8842C9.26335 52.0141 11.4009 52.7431 18.4241 53.3195C25.4474 53.8959 44.082 53.7012 49.922 53.3195C55.762 52.9378 56.8727 50.8843 57.3651 48.1628C57.8575 45.4412 58.014 42.2502 55.2276 40.2921C52.4412 38.334 45.8683 38.5707 39.4176 38.4981C32.9669 38.4256 16.1645 38.166 13.5384 38.8417ZM21.5197 47.552C20.2945 52.0981 13.5765 53.2775 10.523 50.3003C7.46936 47.323 7.66021 40.8303 15.485 40.1471C16.904 39.9966 18.3278 40.3835 19.4754 41.2315C20.623 42.0795 21.411 43.3269 21.6838 44.7275C21.8624 45.6577 21.8073 46.6178 21.5235 47.5215L21.5197 47.552ZM50.3838 40.2196C51.3237 40.1274 52.2718 40.2698 53.143 40.6342C54.0143 40.9986 54.7815 41.5736 55.3758 42.3075C55.9702 43.0415 56.3731 43.9114 56.5484 44.8394C56.7237 45.7674 56.6659 46.7244 56.3803 47.6246C55.1589 52.1706 48.441 53.35 45.3836 50.3728C42.3261 47.3955 42.5513 40.9296 50.3838 40.2463V40.2196ZM39.1924 47.6246C37.9671 52.1706 31.2492 53.35 28.1956 50.3728C25.142 47.3955 25.3329 40.9028 33.1577 40.2196C34.1035 40.1182 35.0597 40.2548 35.9393 40.6171C36.8188 40.9794 37.5939 41.5558 38.1939 42.2939C38.7939 43.032 39.2 43.9084 39.375 44.8434C39.5501 45.7784 39.4886 46.7423 39.1962 47.6475L39.1924 47.6246ZM13.7636 43.9602C13.47 44.1762 13.2286 44.4553 13.0574 44.7771C12.8863 45.1016 12.7898 45.4602 12.775 45.8268C12.7608 46.195 12.83 46.5616 12.9774 46.8994C13.1248 47.2371 13.3466 47.5372 13.6262 47.7772C15.2637 49.4147 18.4394 48.0101 17.7905 45.7962C17.7183 45.3665 17.5411 44.9612 17.2748 44.6163C17.0085 44.2715 16.6612 43.9976 16.2637 43.819C15.8669 43.6401 15.4325 43.5609 14.9981 43.5881C14.5637 43.6154 14.1425 43.7484 13.7712 43.9755L13.7636 43.9602ZM31.4821 44.1167C31.1848 44.3341 30.9408 44.616 30.7682 44.9413C30.5957 45.2666 30.4991 45.6267 30.4858 45.9947C30.4692 46.3623 30.537 46.7289 30.6838 47.0663C30.8307 47.4037 31.0528 47.703 31.3332 47.9414C32.9707 49.5789 36.1464 48.1742 35.5014 45.9642C35.4272 45.5351 35.2494 45.1307 34.9833 44.7861C34.7172 44.4415 34.3709 44.1672 33.9746 43.987C33.5775 43.8071 33.1424 43.7272 32.7073 43.7541C32.2737 43.7784 31.8528 43.9095 31.4821 44.1358V44.1167ZM52.987 45.8153C52.9133 45.3874 52.7365 44.9839 52.4717 44.6397C52.2067 44.2953 51.8617 44.0207 51.4666 43.8398C51.0715 43.6589 50.6383 43.5771 50.2044 43.6014C49.7711 43.6273 49.3505 43.7583 48.9792 43.9831C48.6819 44.2004 48.4378 44.4823 48.2654 44.8076C48.0041 45.2973 47.9177 45.8615 48.0204 46.407C48.1231 46.9525 48.4088 47.4466 48.8303 47.8078C50.464 49.4453 53.6283 48.0902 52.9946 45.8153H52.987Z" fill="#F88E33"/>
</g>
<defs>
<clipPath id="clip0_322_12717">
<rect width="292" height="56.3121" fill="white" transform="translate(0 0.5)"/>
</clipPath>
</defs>
</svg>
