<svg width="248" height="48" viewBox="0 0 248 48" fill="none" xmlns="http://www.w3.org/2000/svg">
    <g clip-path="url(#clip0_678_9741)">
        <path d="M64.5117 37.1391V10.1897H69.6597V32.5483H83.1684V37.1391H64.5117Z" fill="black"/>
        <path d="M95.8594 32.7109C96.929 32.7502 97.9881 32.4875 98.9164 31.9529C99.7392 31.4697 100.432 30.7917 100.933 29.9779C101.469 29.1339 101.836 28.1936 102.016 27.2092C102.236 26.1388 102.344 25.0484 102.34 23.9556V10.1897H107.452V23.9263C107.464 25.684 107.239 27.4353 106.781 29.132C106.395 30.6749 105.697 32.1214 104.729 33.3812C103.783 34.6179 102.554 35.6077 101.147 36.2671C99.4952 37.0148 97.6966 37.3784 95.8853 37.331C93.7717 37.331 91.9681 36.9634 90.4747 36.2281C89.0732 35.5253 87.8485 34.5131 86.8925 33.2673C85.9503 31.9827 85.2665 30.5262 84.8793 28.9791C84.4791 27.3251 84.281 25.6283 84.2893 23.9263V10.1897H89.4373V23.9263C89.435 25.034 89.5348 26.1395 89.7356 27.2287C89.9357 28.2081 90.302 29.1457 90.8184 30.0007C91.3326 30.8028 92.0208 31.4779 92.8315 31.9756C93.7571 32.4881 94.8028 32.742 95.8594 32.7109Z" fill="black"/>
        <path d="M117.796 19.8691V37.1391H112.648V10.1897H116.642L130.446 27.8794V10.2287H135.597V37.1391H131.415L117.796 19.8691Z" fill="black"/>
        <path d="M152.413 37.331C150.584 37.3549 148.774 36.9657 147.116 36.1923C145.579 35.4326 144.199 34.3895 143.047 33.1177C141.922 31.8167 141.038 30.3249 140.434 28.7123C139.819 27.1016 139.504 25.3911 139.504 23.666C139.499 21.8985 139.829 20.1462 140.477 18.5026C141.122 16.898 142.044 15.42 143.2 14.1363C144.369 12.8717 145.777 11.8531 147.343 11.1398C148.964 10.3727 150.737 9.98338 152.53 10.001C154.344 9.97671 156.137 10.3931 157.755 11.2146C159.306 11.9669 160.689 13.026 161.821 14.3283C162.944 15.6243 163.827 17.112 164.427 18.7206C165.687 21.9966 165.673 25.6283 164.388 28.8945C163.76 30.4872 162.851 31.953 161.704 33.2218C160.54 34.4759 159.147 35.4933 157.6 36.2183C155.973 36.9646 154.202 37.3444 152.413 37.331ZM144.727 23.666C144.72 24.8115 144.892 25.9509 145.236 27.0432C145.559 28.0858 146.064 29.0628 146.727 29.9292C147.392 30.7573 148.218 31.4414 149.155 31.9399C150.173 32.464 151.304 32.7288 152.449 32.711C153.589 32.7368 154.718 32.4762 155.733 31.9529C156.682 31.4416 157.51 30.7288 158.157 29.8641C158.83 29.0048 159.337 28.0272 159.652 26.9814C159.996 25.9145 160.172 24.8004 160.174 23.679C160.176 22.5287 159.986 21.3862 159.613 20.2986C159.287 19.2511 158.768 18.2743 158.083 17.4192C157.436 16.5831 156.606 15.9074 155.658 15.4442C154.668 14.9266 153.565 14.6659 152.449 14.6862C151.293 14.6591 150.149 14.9278 149.126 15.467C148.173 15.9566 147.344 16.6576 146.701 17.5168C146.037 18.3818 145.531 19.3577 145.206 20.3994C144.887 21.4586 144.725 22.5594 144.727 23.666Z" fill="#F88E33"/>
        <path d="M191.593 10.1897V37.1391H186.474V25.6377H174.46V37.1391H169.309V10.1897H174.46V21.0827H186.474V10.1897H191.593Z" fill="black"/>
        <path d="M208.416 37.331C206.586 37.3545 204.775 36.9654 203.115 36.1923C201.579 35.432 200.199 34.3891 199.047 33.1177C197.928 31.816 197.049 30.3241 196.453 28.7123C195.837 27.1018 195.52 25.3913 195.52 23.666C195.514 21.8985 195.844 20.1462 196.492 18.5026C197.137 16.898 198.059 15.42 199.215 14.1363C200.383 12.8715 201.791 11.8529 203.355 11.1398C204.977 10.3734 206.75 9.98416 208.542 10.001C210.356 9.97671 212.149 10.3931 213.768 11.2146C215.312 11.9688 216.689 13.0278 217.817 14.3283C218.946 15.6237 219.835 17.1111 220.443 18.7206C221.702 21.9966 221.689 25.6283 220.404 28.8945C219.776 30.4872 218.866 31.953 217.72 33.2218C216.556 34.4759 215.163 35.4933 213.615 36.2183C211.984 36.9661 210.209 37.3459 208.416 37.331ZM200.729 23.666C200.725 24.8123 200.901 25.952 201.251 27.0432C201.575 28.0858 202.08 29.0628 202.742 29.9292C203.407 30.7573 204.232 31.4413 205.167 31.9399C206.182 32.4611 207.308 32.7258 208.448 32.711C209.589 32.7368 210.717 32.4762 211.732 31.9529C212.681 31.4407 213.508 30.728 214.157 29.8641C214.829 29.0048 215.336 28.0272 215.651 26.9814C215.995 25.9145 216.171 24.8004 216.173 23.679C216.175 22.5287 215.986 21.3862 215.612 20.2986C215.286 19.2519 214.768 18.2754 214.086 17.4192C213.439 16.5831 212.609 15.9074 211.661 15.4442C210.671 14.9268 209.567 14.6662 208.451 14.6862C207.297 14.6596 206.154 14.9283 205.132 15.467C204.179 15.9566 203.349 16.6576 202.707 17.5168C202.043 18.3818 201.537 19.3577 201.212 20.3994C200.892 21.4584 200.729 22.5592 200.729 23.666Z" fill="#F88E33"/>
        <path d="M225.309 37.1391V10.1897H234.937C236.88 10.1475 238.81 10.5097 240.607 11.2536C242.168 11.9034 243.568 12.8872 244.711 14.1363C245.821 15.3786 246.661 16.8405 247.175 18.4278C247.732 20.1059 248.009 21.8648 247.995 23.6335C248.02 25.5346 247.704 27.4248 247.061 29.2134C246.505 30.7983 245.621 32.2474 244.468 33.4658C243.289 34.6534 241.879 35.5838 240.325 36.1988C238.61 36.852 236.787 37.1733 234.953 37.1456L225.309 37.1391ZM242.814 23.627C242.827 22.414 242.651 21.2065 242.293 20.0481C241.976 19.0183 241.456 18.0632 240.762 17.2402C240.08 16.4476 239.225 15.824 238.263 15.4182C237.214 14.9707 236.083 14.749 234.943 14.7675H230.463V32.532H234.943C236.099 32.5551 237.246 32.3218 238.302 31.8488C239.253 31.4253 240.095 30.7886 240.762 29.9877C241.452 29.1473 241.971 28.1804 242.293 27.1408C242.647 26.0037 242.823 24.8183 242.814 23.627Z" fill="black"/>
        <path d="M7.48338 11.4594C7.42179 11.3326 7.1592 10.7176 6.87392 10.9063C6.68399 11.1267 6.55046 11.3903 6.4849 11.6742C6.42259 11.957 6.43038 12.2508 6.50759 12.5299C6.7792 13.108 7.22484 13.586 7.78163 13.8964C7.91779 13.8964 8.10581 13.6361 8.17713 13.4376C8.24845 13.2392 7.82377 13.0114 7.56443 12.4615C7.30508 11.9117 7.54822 11.5928 7.48338 11.4594ZM11.1791 4.5944C10.6049 4.95504 10.1106 5.4301 9.72673 5.99018C9.72673 6.12683 10.3751 6.57258 10.5988 6.60511C10.8225 6.63765 10.8873 6.22119 11.2828 5.82425C11.6783 5.42732 12.3202 5.7299 12.3202 5.7299C12.3202 5.7299 12.8097 5.20933 12.7157 4.9165C12.6217 4.62368 11.8015 4.33411 11.1791 4.5944ZM17.238 9.21773C17.084 10.2066 16.8674 11.1847 16.5897 12.1459C16.071 13.3237 14.9396 14.6545 14.9396 14.8855C14.9396 15.1165 15.3351 15.175 15.6236 15.1132C15.9121 15.0514 16.4665 14.4267 17.1797 13.0309C17.7022 11.9254 18.0312 10.7379 18.1522 9.52031C18.1133 9.32185 17.2283 9.19496 17.2283 9.19496L17.238 9.21773ZM18.6709 23.9987C17.6939 25.086 16.7855 26.2335 15.951 27.4345C16.2747 27.5908 16.6335 27.6592 16.9917 27.633C17.9007 26.6178 18.6934 25.5036 19.355 24.3111C19.2836 24.1224 18.7974 23.9857 18.6709 23.9857V23.9987ZM41.4967 1.47097C41.1771 0.935672 40.7159 0.499809 40.1643 0.211835C39.8145 0.0539522 39.432 -0.0174534 39.0491 0.00360628C38.6663 0.0252518 38.2942 0.138789 37.9642 0.33468C37.6342 0.53057 37.3559 0.80309 37.1526 1.12934C36.9474 1.45397 36.8229 1.8233 36.7895 2.20628C36.7737 2.77617 36.8947 3.34151 37.1424 3.85457C37.3901 4.36762 37.7572 4.81332 38.2127 5.15402L36.4362 17.5176C35.4779 17.554 34.5616 17.9218 33.8427 18.5587C33.0944 19.2757 32.6586 20.2604 32.6303 21.2983L30.254 21.077C29.2134 20.9957 26.7042 20.7354 26.7042 20.7354C26.6758 20.3391 26.6029 19.9473 26.487 19.5674C26.3087 19.0891 25.4464 18.6108 25.4464 18.6108L26.487 14.1469C26.9088 13.9113 27.2432 13.5449 27.4401 13.1025C27.5501 12.8552 27.6022 12.5858 27.5925 12.3151C27.5805 12.0431 27.5073 11.7772 27.3785 11.5375C27.2488 11.2991 27.0657 11.0942 26.8436 10.9389C26.6234 10.7806 26.369 10.6769 26.1012 10.6363C25.6755 10.478 25.2089 10.4689 24.7774 10.6107C24.3459 10.7525 23.9749 11.0368 23.7249 11.4171L22.1786 11.0105C22.1786 11.0105 22.7394 6.3253 21.1412 4.20072C19.543 2.07613 14.9137 1.07403 11.7172 1.33432C8.52077 1.5946 6.35198 5.50215 6.35198 5.50215L5.14926 4.98158C5.22873 4.58317 5.22873 4.17291 5.14926 3.7745C5.06526 3.37764 4.90325 3.00157 4.67271 2.66828C3.89143 1.63039 1.45682 2.37546 0.675538 3.38732C-0.105743 4.39919 -0.452619 5.92837 0.999721 6.90769C1.45163 7.17819 1.96802 7.321 2.4942 7.321C3.02039 7.321 3.53678 7.17819 3.98869 6.90769L5.02607 7.68855C4.54914 8.2833 4.15439 8.93994 3.85253 9.6407C3.30793 11.1233 3.30793 12.7522 3.85253 14.2347C4.69983 16.0923 6.0892 17.6478 7.83674 18.6954C9.45765 19.4144 14.1875 20.7809 17.6951 18.5002C19.8415 17.0249 21.3573 14.7942 21.9419 12.2501L23.5629 12.5103C23.6253 12.8305 23.7345 13.1397 23.887 13.4279C24.1309 13.8475 24.4914 14.1867 24.9244 14.4039L24.0783 18.5099C23.5694 18.6434 23.0965 18.8891 22.694 19.229C22.2177 19.5804 21.8565 20.0663 21.6567 20.6248C20.6171 20.6248 19.5797 20.6801 18.5445 20.7907C17.2428 21.0107 16.0479 21.6503 15.1406 22.6127C14.0092 23.6538 10.4691 29.5819 10.4691 29.5819C9.82502 29.6798 9.19489 29.8546 8.59209 30.1024C6.43778 30.9957 4.64601 32.5911 3.50566 34.6314C2.62957 36.229 2.25924 38.0565 2.44398 39.8706C2.62873 41.6846 3.3598 43.3992 4.5398 44.7858C6.97441 47.0828 7.62278 47.7336 14.677 48.0036H40.7251C45.0951 48.0036 47.4098 47.5774 49.1214 46.0872C50.4517 44.9097 51.4115 43.3688 51.8836 41.6528C52.3557 39.9367 52.3196 38.1199 51.7797 36.4241C50.4182 31.6121 46.9429 31.0492 46.9429 31.0492C46.4406 30.0465 45.8539 29.0886 45.1891 28.1861C43.6878 26.1826 42.0717 24.2685 40.3491 22.4533C40.3746 21.4535 40.2456 20.4558 39.9665 19.4958C39.7312 19.0083 39.4005 18.5734 38.994 18.2171C38.5935 17.8586 38.1248 17.5853 37.6162 17.4135L39.3733 5.70062C40.1341 5.63141 40.8466 5.29633 41.3864 4.75383C41.7064 4.27075 41.8862 3.70785 41.9057 3.12809C41.9251 2.54833 41.7835 1.97457 41.4967 1.47097ZM3.966 4.88397C3.96644 5.1557 3.89 5.42198 3.74555 5.65181C3.60056 5.88114 3.39526 6.06579 3.1523 6.1854C2.90804 6.30636 2.6346 6.35528 2.36375 6.32649C2.09289 6.29769 1.83573 6.19236 1.62215 6.02272C0.231407 5.24186 1.62215 3.55326 2.36777 3.41986C3.74879 3.18235 4.13457 3.87861 3.98869 4.89048L3.966 4.88397ZM11.5324 3.07498C12.9945 2.68781 14.583 2.74962 14.8748 4.60416C14.9441 6.24448 14.7111 7.88355 14.1875 9.43897L7.86916 6.1366C7.86916 6.1366 10.0801 3.44914 11.5324 3.07498ZM6.3455 6.88492C6.56594 6.88492 12.3753 9.65696 12.3753 10.0116C12.3753 10.3662 11.6913 11.9637 11.2763 11.8954C9.54869 10.5384 7.90122 9.08156 6.34226 7.53238C6.01807 7.23956 6.01807 6.83286 6.31308 6.8654L6.3455 6.88492ZM6.25149 14.4072C4.0827 12.7511 6.25149 9.62443 6.51083 9.4585C6.51083 9.4585 11.3736 13.5613 11.3185 13.6881C11.2634 13.815 8.40082 16.0502 6.22231 14.3844L6.25149 14.4072ZM19.0697 14.4592C17.2186 17.1565 15.5264 17.7811 13.7531 17.8983C12.5633 18.0332 11.3586 17.9225 10.213 17.5729C9.78832 17.3744 9.46738 16.8864 9.83047 16.7595C12.0857 15.7147 13.9398 13.9602 15.1114 11.762C16.9268 8.31324 16.9592 4.53258 17.1862 4.2788C17.8783 4.3722 18.5245 4.67857 19.036 5.15577C19.5475 5.63296 19.899 6.25752 20.0422 6.94348C20.5512 9.14615 20.9013 11.749 19.0664 14.4592H19.0697ZM49.0274 35.4448C50.6775 38.373 49.611 43.2534 47.0823 44.9127C44.5537 46.572 28.4969 46.1816 21.8544 45.9538C15.2119 45.7261 8.78011 45.7749 6.33901 43.7447C3.89792 41.7144 3.9433 38.2136 5.5707 35.7669C7.1981 33.3202 9.33122 31.111 16.1196 30.7271C23.8398 30.4743 31.5679 30.6449 39.2695 31.2379C45.1956 31.9342 47.3644 32.5166 49.0242 35.4448H49.0274ZM40.0703 24.8739C41.1692 26.3738 43.5358 29.6957 43.2764 29.725C43.0136 29.7503 42.7484 29.7192 42.4984 29.6339C42.333 29.5688 39.5807 25.9867 39.3214 25.9574C39.062 25.9281 38.284 26.2469 38.4202 26.4779C38.5563 26.709 41.3054 29.4062 41.1076 29.4354C40.6355 29.5005 40.1567 29.5005 39.6845 29.4354C39.5191 29.3411 37.4444 26.5072 37.2563 26.4454C37.0683 26.3836 36.1249 26.6732 36.2838 26.9042C36.4426 27.1352 38.7541 29.3411 38.5531 29.4452C38.1602 29.559 37.7432 29.559 37.3504 29.4452C37.1526 29.3216 35.8235 27.3011 35.5349 27.236C35.2464 27.171 34.4975 27.4345 34.6629 27.7273C34.8282 28.0201 36.0212 29.3216 35.8656 29.3216L12.9329 29.1133C13.2571 28.7587 16.3692 23.5205 18.7034 22.7363C21.0375 21.9522 31.7063 22.8014 35.0487 23.1235C38.391 23.4456 38.9713 23.374 40.0703 24.8739ZM39.0977 21.6562C37.3509 21.7344 35.6022 21.548 33.9108 21.103C33.9972 20.4005 34.3399 19.7549 34.8728 19.2911C35.4056 18.8272 36.0908 18.5779 36.796 18.5913C39.0653 18.6954 39.6196 21.4479 39.1009 21.6431L39.0977 21.6562ZM38.7735 4.33412C37.9339 3.75172 37.8691 1.6369 39.1269 1.21068C39.8304 0.969918 40.777 1.56532 40.8159 2.7724C40.8548 3.97948 39.6553 4.9165 38.7832 4.33412H38.7735ZM11.5 32.6858C6.31308 34.0165 5.27569 38.578 6.57243 41.2459C7.86916 43.9139 9.68458 44.5353 15.6496 45.0266C21.6145 45.5179 37.4411 45.3519 42.4011 45.0266C47.3611 44.7012 48.3045 42.9508 48.7227 40.631C49.1409 38.3112 49.2738 35.5912 46.9073 33.9221C44.5407 32.253 38.9583 32.4548 33.4796 32.3929C28.0009 32.3311 13.7304 32.1099 11.5 32.6858ZM18.2787 40.1104C17.238 43.9854 11.5324 44.9908 8.93896 42.453C6.3455 39.9152 6.50759 34.3809 13.1533 33.7985C14.3585 33.6702 15.5677 34 16.5424 34.7229C17.5171 35.4457 18.1863 36.5089 18.4181 37.7028C18.5697 38.4957 18.5229 39.3141 18.2819 40.0844L18.2787 40.1104ZM42.7934 33.8603C43.5916 33.7817 44.3969 33.9031 45.1368 34.2138C45.8768 34.5244 46.5284 35.0145 47.0332 35.6401C47.538 36.2657 47.8801 37.0072 48.029 37.7982C48.1779 38.5892 48.1289 39.4049 47.8863 40.1722C46.8489 44.0473 41.1433 45.0526 38.5466 42.5148C35.9499 39.977 36.1412 34.4655 42.7934 33.8831V33.8603ZM33.2883 40.1722C32.2477 44.0473 26.5421 45.0526 23.9486 42.5148C21.3552 39.977 21.5173 34.4427 28.163 33.8603C28.9663 33.7739 29.7784 33.8903 30.5254 34.1991C31.2724 34.5079 31.9307 34.9992 32.4403 35.6284C32.9499 36.2576 33.2948 37.0046 33.4434 37.8016C33.5921 38.5986 33.5399 39.4202 33.2916 40.1918L33.2883 40.1722ZM11.6913 37.0488C11.4419 37.2329 11.2369 37.4708 11.0915 37.7451C10.9461 38.0217 10.8642 38.3274 10.8516 38.6398C10.8396 38.9537 10.8984 39.2662 11.0236 39.5541C11.1487 39.842 11.3371 40.0978 11.5746 40.3024C12.9653 41.6982 15.6625 40.5009 15.1114 38.6138C15.0501 38.2475 14.8996 37.902 14.6734 37.6081C14.4472 37.3141 14.1523 37.0806 13.8147 36.9284C13.4777 36.7759 13.1087 36.7084 12.7397 36.7316C12.3708 36.7549 12.0131 36.8682 11.6978 37.0618L11.6913 37.0488ZM26.7399 37.1822C26.4874 37.3675 26.2801 37.6078 26.1336 37.885C25.987 38.1623 25.905 38.4693 25.8937 38.783C25.8796 39.0963 25.9372 39.4088 26.0619 39.6964C26.1867 39.984 26.3753 40.2391 26.6134 40.4423C28.0042 41.8381 30.7014 40.6408 30.1535 38.7569C30.0905 38.3912 29.9395 38.0465 29.7135 37.7528C29.4875 37.4591 29.1934 37.2252 28.8568 37.0716C28.5195 36.9183 28.15 36.8502 27.7805 36.8731C27.4122 36.8938 27.0547 37.0056 26.7399 37.1985V37.1822ZM45.0043 38.6301C44.9417 38.2653 44.7915 37.9213 44.5667 37.628C44.3416 37.3344 44.0486 37.1004 43.713 36.9462C43.3775 36.792 43.0095 36.7222 42.641 36.743C42.273 36.765 41.9158 36.8766 41.6004 37.0683C41.3479 37.2535 41.1406 37.4938 40.9942 37.7711C40.7723 38.1885 40.6989 38.6695 40.7861 39.1344C40.8734 39.5994 41.116 40.0206 41.474 40.3284C42.8615 41.7242 45.5489 40.5692 45.0108 38.6301H45.0043Z" fill="#F88E33"/>
    </g>
    <defs>
        <clipPath id="clip0_678_9741">
            <rect width="248" height="48" fill="white"/>
        </clipPath>
    </defs>
</svg>
