<svg width="13" height="18" viewBox="0 0 13 18" fill="none" xmlns="http://www.w3.org/2000/svg">
<path d="M6.98536 0C3.67702 0 0.985352 2.69167 0.985352 6.00001C0.985352 6.99318 1.23366 7.9779 1.7057 8.85132L6.65725 17.8066C6.72316 17.926 6.84878 18 6.98536 18C7.12194 18 7.24755 17.926 7.31347 17.8066L12.2668 8.84837C12.7371 7.9779 12.9854 6.99314 12.9854 5.99998C12.9854 2.69167 10.2937 0 6.98536 0ZM6.98536 9C5.33119 9 3.98537 7.65418 3.98537 6.00001C3.98537 4.34584 5.33119 3.00002 6.98536 3.00002C8.63953 3.00002 9.98534 4.34584 9.98534 6.00001C9.98534 7.65418 8.63953 9 6.98536 9Z" fill="#F89D33"/>
</svg>
