<svg width="24" height="25" viewBox="0 0 24 25" fill="none" xmlns="http://www.w3.org/2000/svg">
<g clip-path="url(#clip0_322_20565)">
<path d="M11.9993 12.3932C13.9202 12.3932 15.4829 10.8304 15.4829 8.90952V5.62658C14.4361 5.09384 13.2522 4.79309 11.9993 4.79309C10.7464 4.79309 9.56248 5.09384 8.51562 5.62658V8.90952C8.51562 10.8304 10.0784 12.3932 11.9993 12.3932ZM11.2962 9.2511H12.7024V10.6407H11.2962V9.2511Z" fill="#F89D33"/>
<path d="M4.29297 12.5C4.29297 16.7496 7.75028 20.207 11.9999 20.207C16.2496 20.207 19.7069 16.7496 19.7069 12.5C19.7069 10.1051 18.6088 7.96201 16.8898 6.54736V8.90945C16.8898 11.6057 14.6962 13.7994 11.9999 13.7994C9.30363 13.7994 7.11002 11.6057 7.11002 8.90945V6.54741C5.39102 7.96205 4.29297 10.1051 4.29297 12.5ZM9.98627 16.0781H14.0136V17.4843H9.98627V16.0781Z" fill="#F89D33"/>
<path d="M2.91424 11.7969C3.27438 7.09911 7.21207 3.3868 12.0005 3.3868C16.789 3.3868 20.7267 7.09911 21.0868 11.7969H23.9796C23.8108 8.85598 22.5858 6.11464 20.4859 4.01469C18.2193 1.74823 15.2059 0.5 12.0005 0.5C8.79522 0.5 5.78177 1.74823 3.51522 4.01469C1.41531 6.11464 0.190281 8.85598 0.0214844 11.7969H2.91424Z" fill="#F89D33"/>
<path d="M21.0868 13.2031C20.7267 17.9009 16.789 21.6132 12.0005 21.6132C7.21207 21.6132 3.27438 17.9009 2.91424 13.2031H0.0214844C0.190281 16.144 1.41531 18.8854 3.51527 20.9853C5.78177 23.2518 8.79522 24.5 12.0005 24.5C15.2059 24.5 18.2193 23.2518 20.4859 20.9853C22.5858 18.8854 23.8108 16.144 23.9796 13.2031H21.0868Z" fill="#F89D33"/>
</g>
<defs>
<clipPath id="clip0_322_20565">
<rect width="24" height="24" fill="white" transform="translate(0 0.5)"/>
</clipPath>
</defs>
</svg>
