<svg width="24" height="25" viewBox="0 0 24 25" fill="none" xmlns="http://www.w3.org/2000/svg">
<g clip-path="url(#clip0_322_20549)">
<path fill-rule="evenodd" clip-rule="evenodd" d="M24 9.99689V4.49625C23.0324 2.88094 21.2808 1.88269 19.395 1.88269C16.4379 1.88269 14.0295 4.28883 14.0295 7.24655C14.0295 10.2043 16.4379 12.6104 19.395 12.6104C21.2808 12.6104 23.0324 11.6122 24 9.99689ZM4.60505 12.6104C7.56445 12.6104 9.97055 10.2043 9.97055 7.24655C9.97055 4.28878 7.56445 1.88269 4.60505 1.88269C2.72161 1.88269 0.967641 2.88094 0 4.49625V9.99689C0.967641 11.6122 2.72161 12.6104 4.60505 12.6104ZM6.9735 8.95673V5.53659C6.9735 5.28586 7.176 5.0827 7.42786 5.0827C7.67742 5.0827 7.88227 5.28591 7.88227 5.53659V8.95673C7.88227 9.20723 7.67742 9.41044 7.42786 9.41044C7.176 9.41044 6.9735 9.20728 6.9735 8.95673ZM9.97055 21.2927H6.47437C6.46261 21.2927 6.44845 21.2918 6.43434 21.2906V22.937C6.43434 23.0347 6.51675 23.1173 6.61561 23.1173H9.78923C9.8528 23.1173 9.89756 23.0841 9.91636 23.0639C9.93516 23.0443 9.9705 23.001 9.9705 22.937V21.2927H9.97055ZM9.9682 20.3851H6.47437C6.46261 20.3851 6.44845 20.3856 6.43434 20.3872V13.2459C7.91991 12.7922 9.17241 11.8011 9.96581 10.5L9.9682 20.3851ZM17.5256 21.2927H14.0317L14.0294 22.937C14.0294 23.001 14.0648 23.0439 14.0835 23.0639C14.1047 23.0841 14.1471 23.1173 14.2107 23.1173H17.3843C17.4832 23.1173 17.5656 23.0347 17.5656 22.937V21.2906C17.5515 21.2918 17.5397 21.2927 17.5256 21.2927ZM17.5656 20.3872C17.5515 20.3856 17.5397 20.3851 17.5256 20.3851H14.0317L14.0341 10.5C14.8275 11.8011 16.08 12.7922 17.5656 13.2459V20.3872ZM17.0265 5.53664V8.95678C17.0265 9.20728 16.824 9.41048 16.5721 9.41048C16.3226 9.41048 16.1201 9.20728 16.1201 8.95678V5.53664C16.1201 5.28591 16.3226 5.08275 16.5721 5.08275C16.824 5.0827 17.0265 5.28591 17.0265 5.53664Z" fill="#F89D33"/>
</g>
<defs>
<clipPath id="clip0_322_20549">
<rect width="24" height="24" fill="white" transform="translate(0 0.5)"/>
</clipPath>
</defs>
</svg>
