<svg width="24" height="24" viewBox="0 0 24 24" fill="none" xmlns="http://www.w3.org/2000/svg">
<path d="M21.1875 16.9688V9.37737C21.1875 8.05784 19.9955 7.04722 18.7308 7.29331C18.6112 7.31675 18.4927 7.34206 18.375 7.37019V13.4532C18.375 17.5469 15.2288 20.8116 11.3438 21.1566V21.8907C11.3438 23.0536 12.2902 24 13.4531 24H18.0459C17.3761 23.2533 16.9688 22.2671 16.9688 21.1875C16.9688 18.8611 18.8611 16.9688 21.1875 16.9688Z" fill="#F89D33"/>
<path d="M21.1875 18.375C19.6369 18.375 18.375 19.6369 18.375 21.1875C18.375 22.7381 19.6369 24 21.1875 24C22.7381 24 24 22.7381 24 21.1875C24 19.6369 22.7381 18.375 21.1875 18.375ZM21.1875 21.8906C20.7994 21.8906 20.4844 21.5756 20.4844 21.1875C20.4844 20.7994 20.7994 20.4844 21.1875 20.4844C21.5756 20.4844 21.8906 20.7994 21.8906 21.1875C21.8906 21.5756 21.5756 21.8906 21.1875 21.8906Z" fill="#F89D33"/>
<path d="M10.1953 16.9688H11.3438V19.7428C14.4572 19.4038 16.9688 16.7623 16.9688 13.4531V7.82531C13.8352 9.13078 11.6358 12.1144 11.3709 15.5625H10.1953C9.61378 15.5625 9.14062 15.0893 9.14062 14.5078V2.46094C9.14062 1.104 8.03662 0 6.67969 0C5.32275 0 4.21875 1.104 4.21875 2.46094V19.7812H3.51562C1.57687 19.7812 0 21.3581 0 23.2969C0 23.685 0.315 24 0.703125 24H9.14062C9.52875 24 9.84375 23.685 9.84375 23.2969C9.84375 21.3581 8.26688 19.7812 6.32812 19.7812H5.625V2.46094C5.625 1.87941 6.09816 1.40625 6.67969 1.40625C7.26122 1.40625 7.73438 1.87941 7.73438 2.46094V14.5078C7.73438 15.8647 8.83838 16.9688 10.1953 16.9688Z" fill="#F89D33"/>
</svg>
