<svg width="24" height="25" viewBox="0 0 24 25" fill="none" xmlns="http://www.w3.org/2000/svg">
<path d="M21.1406 15.5563H15.5156C13.5772 15.5563 12 13.9791 12 12.0407V6.41565C12 6.1749 12.0248 5.93982 12.0712 5.71252H2.85938C1.69622 5.71252 0.75 6.65874 0.75 7.8219V19.1188C0.75 20.2819 1.69622 21.275 2.85938 21.275H19.7344C20.8975 21.275 21.8438 20.2819 21.8438 19.1188V15.4851C21.6165 15.5315 21.3814 15.5563 21.1406 15.5563ZM4.26562 16.9625C3.87731 16.9625 3.5625 16.6477 3.5625 16.2594C3.5625 15.871 3.87731 15.5563 4.26562 15.5563C4.65394 15.5563 4.96875 15.871 4.96875 16.2594C4.96875 16.6477 4.65394 16.9625 4.26562 16.9625ZM7.07812 16.9625C6.68981 16.9625 6.375 16.6477 6.375 16.2594C6.375 15.871 6.68981 15.5563 7.07812 15.5563C7.46644 15.5563 7.78125 15.871 7.78125 16.2594C7.78125 16.6477 7.46644 16.9625 7.07812 16.9625ZM9.89062 16.9625C9.50231 16.9625 9.1875 16.6477 9.1875 16.2594C9.1875 15.871 9.50231 15.5563 9.89062 15.5563C10.2789 15.5563 10.5938 15.871 10.5938 16.2594C10.5938 16.6477 10.2789 16.9625 9.89062 16.9625ZM10.5938 13.4469C10.5938 13.8355 10.2793 14.15 9.89062 14.15H4.26562C3.87698 14.15 3.5625 13.8355 3.5625 13.4469V9.22815C3.5625 8.83951 3.87698 8.52502 4.26562 8.52502H9.89062C10.2793 8.52502 10.5938 8.83951 10.5938 9.22815V13.4469Z" fill="#F89D33"/>
<path d="M18.3281 7.8219C17.5529 7.8219 16.9219 8.45293 16.9219 9.22815C16.9219 10.0034 17.5529 10.6344 18.3281 10.6344C19.1033 10.6344 19.7344 10.0034 19.7344 9.22815C19.7344 8.45293 19.1033 7.8219 18.3281 7.8219Z" fill="#F89D33"/>
<path d="M21.1406 4.30627H15.5156C14.3506 4.30627 13.4062 5.25067 13.4062 6.41565V12.0406C13.4062 13.2056 14.3506 14.15 15.5156 14.15H21.1406C22.3056 14.15 23.25 13.2056 23.25 12.0406V6.41565C23.25 5.25067 22.3056 4.30627 21.1406 4.30627ZM18.3281 12.0406C16.777 12.0406 15.5156 10.7793 15.5156 9.22815C15.5156 7.67701 16.777 6.41565 18.3281 6.41565C19.8793 6.41565 21.1406 7.67701 21.1406 9.22815C21.1406 10.7793 19.8793 12.0406 18.3281 12.0406Z" fill="#F89D33"/>
<path d="M4.96875 2.90002C4.19208 2.90002 3.5625 3.5296 3.5625 4.30627H6.375C6.375 3.5296 5.74542 2.90002 4.96875 2.90002Z" fill="#F89D33"/>
<rect x="3" y="15.5" width="9" height="3" fill="#F89D33"/>
</svg>
