<svg width="26" height="27" viewBox="0 0 26 27" fill="none" xmlns="http://www.w3.org/2000/svg">
<g clip-path="url(#clip0_322_20570)">
<path d="M19.7899 10.3969C19.6058 10.3208 19.3946 10.4083 19.3184 10.5925L18.5122 12.5428L17.7059 10.5925C17.6297 10.4084 17.4186 10.3207 17.2344 10.3969C17.0502 10.473 16.9626 10.6841 17.0387 10.8683L18.1602 13.5813C18.2863 13.8863 18.7424 13.8755 18.864 13.5813L19.9856 10.8683C20.0618 10.6841 19.9742 10.473 19.7899 10.3969ZM22.2581 12.4607C23.2858 11.9207 22.8928 10.3695 21.7441 10.3695H20.8314C20.632 10.3695 20.4704 10.531 20.4704 10.7304V13.4696C20.4704 13.6689 20.6321 13.8305 20.8314 13.8305C21.0308 13.8305 21.1923 13.6689 21.1923 13.4696V12.5875H21.4766L22.1909 13.6686C22.3008 13.8349 22.5248 13.8807 22.6911 13.7707C22.8575 13.6608 22.9032 13.4369 22.7933 13.2705L22.2581 12.4607ZM21.7441 11.8656H21.1923V11.0914H21.7441C21.9575 11.0914 22.1312 11.265 22.1312 11.4785C22.1312 11.6919 21.9576 11.8656 21.7441 11.8656ZM2.46523 13.3726C2.26586 13.3726 2.10427 13.5342 2.10427 13.7336V14.3001C2.10427 14.4995 2.26591 14.6611 2.46523 14.6611C2.66459 14.6611 2.82618 14.4995 2.82618 14.3001V13.7336C2.82618 13.5342 2.66459 13.3726 2.46523 13.3726ZM4.24028 9.49602C3.00254 9.49602 2.10422 10.3943 2.10422 11.6321V12.506C2.10422 12.7054 2.26586 12.867 2.46518 12.867C2.66454 12.867 2.82613 12.7054 2.82613 12.506V11.6321C2.82613 10.9282 3.26336 10.218 4.24023 10.218C4.4396 10.218 4.60119 10.0564 4.60119 9.85703C4.60129 9.65761 4.43965 9.49602 4.24028 9.49602ZM0.926605 16.0876H0.500957C0.224301 16.0876 0 15.8633 0 15.5866V12.8084C0 12.5317 0.224301 12.3074 0.500957 12.3074H0.926605V16.0876ZM11.1099 7.88438C11.1099 7.60772 11.3342 7.38342 11.6109 7.38342H14.3892C14.6658 7.38342 14.8901 7.60767 14.8901 7.88433V8.31003H11.1099V7.88438ZM24.6049 16.8265C24.6049 18.3649 23.3533 19.6166 21.8148 19.6166H15.8612C15.479 19.6166 15.1681 19.3056 15.1681 18.9234C15.1681 18.073 14.4762 17.3812 13.6259 17.3812H12.3741C11.5237 17.3812 10.8319 18.073 10.8319 18.9234C10.8319 19.3056 10.521 19.6166 10.1388 19.6166H4.18519C2.64672 19.6166 1.39506 18.3649 1.39506 16.8265V11.5687C1.39506 10.0302 2.64672 8.77854 4.18519 8.77854H21.8149C23.3533 8.77854 24.605 10.0302 24.605 11.5687V16.8265H24.6049ZM26 15.5867C26 15.8633 25.7757 16.0876 25.4991 16.0876H25.0734V12.3074H25.4991C25.7757 12.3074 26 12.5317 26 12.8083V15.5867Z" fill="#F89D33"/>
</g>
<defs>
<clipPath id="clip0_322_20570">
<rect width="26" height="26" fill="white" transform="translate(0 0.5)"/>
</clipPath>
</defs>
</svg>
