<svg width="24" height="24" viewBox="0 0 24 24" fill="none" xmlns="http://www.w3.org/2000/svg">
<g clip-path="url(#clip0_322_20545)">
<path d="M20.3992 0H18.7992C18.578 0 18.3992 0.178781 18.3992 0.399984V19.2C18.3992 20.5236 17.3224 21.6 15.9992 21.6H11.1992C9.87563 21.6 8.79923 20.5256 8.79923 19.2052V18.4C9.24042 18.4 9.59925 18.0412 9.59925 17.6V16H11.1992C11.6404 16 11.9993 15.6412 11.9993 15.2V5.59997C11.9993 5.15878 11.6405 4.79995 11.1992 4.79995H10.7992V1.2C10.7992 0.538406 10.2608 0 9.5992 0H5.59922C4.9372 0 4.39922 0.538406 4.39922 1.2V4.8H3.99923C3.55763 4.8 3.19922 5.15878 3.19922 5.60002V15.2C3.19922 15.6412 3.55763 16 3.99923 16H5.59922V17.6C5.59922 18.0412 5.95763 18.4 6.39923 18.4V19.2052C6.39923 21.8489 8.55244 24 11.1992 24H15.9992C18.6457 24 20.7992 21.8468 20.7992 19.2V0.399984C20.7992 0.178781 20.62 0 20.3992 0ZM5.19919 4.8V1.2C5.19919 0.979219 5.37839 0.800016 5.59917 0.800016H9.5992C9.81961 0.800016 9.99919 0.979219 9.99919 1.2V4.8H5.19919ZM6.11602 13.0828C5.96002 12.9264 5.96002 12.6736 6.11602 12.5172L7.83324 10.8H6.39923C6.34683 10.8 6.29522 10.7892 6.24605 10.7692C6.14845 10.7288 6.07045 10.6508 6.03005 10.5528C5.98964 10.4552 5.98964 10.3448 6.03005 10.2472C6.05006 10.198 6.07964 10.154 6.11644 10.1168L8.51602 7.71717C8.67244 7.5608 8.92561 7.5608 9.08203 7.71717C9.23803 7.87359 9.23803 8.12639 9.08203 8.28277L7.36481 9.99998H8.79923C8.85122 9.99998 8.90283 10.0104 8.95163 10.0308C9.04964 10.0712 9.12764 10.1492 9.16805 10.2472C9.20845 10.3448 9.20845 10.4552 9.16805 10.5528C9.14803 10.602 9.11845 10.646 9.08166 10.6832L6.68198 13.0828C6.60356 13.1608 6.50119 13.2 6.39919 13.2C6.29681 13.2 6.19439 13.1608 6.11602 13.0828ZM6.79922 17.6H6.39923V16H8.79923L8.79966 17.6H8.3992H6.79922Z" fill="#F89D33"/>
</g>
<defs>
<clipPath id="clip0_322_20545">
<rect width="24" height="24" fill="white"/>
</clipPath>
</defs>
</svg>
