<svg width="24" height="25" viewBox="0 0 24 25" fill="none" xmlns="http://www.w3.org/2000/svg">
<g clip-path="url(#clip0_322_20541)">
<path d="M20.3992 0.5H18.7992C18.578 0.5 18.3992 0.678781 18.3992 0.899984V19.7C18.3992 21.0236 17.3224 22.1 15.9992 22.1H11.1992C9.87563 22.1 8.79923 21.0256 8.79923 19.7052V18.9C9.24042 18.9 9.59925 18.5412 9.59925 18.1V16.5H11.1992C11.6404 16.5 11.9993 16.1412 11.9993 15.7V6.09997C11.9993 5.65878 11.6405 5.29995 11.1992 5.29995H10.7992V1.7C10.7992 1.03841 10.2608 0.5 9.5992 0.5H5.59922C4.9372 0.5 4.39922 1.03841 4.39922 1.7V5.3H3.99923C3.55763 5.3 3.19922 5.65878 3.19922 6.10002V15.7C3.19922 16.1412 3.55763 16.5 3.99923 16.5H5.59922V18.1C5.59922 18.5412 5.95763 18.9 6.39923 18.9V19.7052C6.39923 22.3489 8.55244 24.5 11.1992 24.5H15.9992C18.6457 24.5 20.7992 22.3468 20.7992 19.7V0.899984C20.7992 0.678781 20.62 0.5 20.3992 0.5ZM5.19919 5.3V1.7C5.19919 1.47922 5.37839 1.30002 5.59917 1.30002H9.5992C9.81961 1.30002 9.99919 1.47922 9.99919 1.7V5.3H5.19919ZM6.11602 13.5828C5.96002 13.4264 5.96002 13.1736 6.11602 13.0172L7.83324 11.3H6.39923C6.34683 11.3 6.29522 11.2892 6.24605 11.2692C6.14845 11.2288 6.07045 11.1508 6.03005 11.0528C5.98964 10.9552 5.98964 10.8448 6.03005 10.7472C6.05006 10.698 6.07964 10.654 6.11644 10.6168L8.51602 8.21717C8.67244 8.0608 8.92561 8.0608 9.08203 8.21717C9.23803 8.37359 9.23803 8.62639 9.08203 8.78277L7.36481 10.5H8.79923C8.85122 10.5 8.90283 10.5104 8.95163 10.5308C9.04964 10.5712 9.12764 10.6492 9.16805 10.7472C9.20845 10.8448 9.20845 10.9552 9.16805 11.0528C9.14803 11.102 9.11845 11.146 9.08166 11.1832L6.68198 13.5828C6.60356 13.6608 6.50119 13.7 6.39919 13.7C6.29681 13.7 6.19439 13.6608 6.11602 13.5828ZM6.79922 18.1H6.39923V16.5H8.79923L8.79966 18.1H8.3992H6.79922Z" fill="#F89D33"/>
</g>
<defs>
<clipPath id="clip0_322_20541">
<rect width="24" height="24" fill="white" transform="translate(0 0.5)"/>
</clipPath>
</defs>
</svg>
