<svg width="15" height="15" viewBox="0 0 15 15" fill="none" xmlns="http://www.w3.org/2000/svg">
<g clip-path="url(#clip0_323_6618)">
<path d="M6.13456 11.7642C7.3859 11.7642 8.60145 11.3467 9.58867 10.5778L13.3131 14.3022C13.5913 14.5709 14.0347 14.5632 14.3034 14.285C14.5655 14.0136 14.5655 13.5833 14.3034 13.312L10.5789 9.58751C12.487 7.13137 12.0427 3.59351 9.58651 1.68548C7.13036 -0.222547 3.59253 0.221767 1.68451 2.67791C-0.223524 5.13406 0.22079 8.67192 2.67694 10.5799C3.66576 11.3481 4.8824 11.7648 6.13456 11.7642ZM3.142 3.14082C4.79476 1.48803 7.47442 1.488 9.12721 3.14076C10.78 4.79352 10.78 7.47318 9.12727 9.12597C7.47451 10.7788 4.79486 10.7788 3.14206 9.12603C3.14203 9.126 3.14203 9.126 3.142 9.12597C1.48924 7.48525 1.4795 4.81536 3.12022 3.1626C3.12747 3.15532 3.13472 3.14807 3.142 3.14082Z" fill="url(#paint0_linear_323_6618)"/>
</g>
<defs>
<linearGradient id="paint0_linear_323_6618" x1="7.49999" y1="0.500977" x2="7.49999" y2="14.4988" gradientUnits="userSpaceOnUse">
<stop stop-color="#F89C33"/>
<stop offset="1" stop-color="#F87D33"/>
</linearGradient>
<clipPath id="clip0_323_6618">
<rect width="14" height="14" fill="white" transform="translate(0.5 0.5)"/>
</clipPath>
</defs>
</svg>
