<svg width="23" height="22" viewBox="0 0 23 22" fill="none" xmlns="http://www.w3.org/2000/svg">
<g clip-path="url(#clip0_32_7136)">
<path d="M10.6152 13.0606L14.1934 10.9998L10.6152 8.93896V13.0606Z" fill="#F89D33"/>
<path d="M11.9854 0C5.91115 0 0.985352 4.9258 0.985352 11C0.985352 17.0742 5.91115 22 11.9854 22C18.0596 22 22.9854 17.0742 22.9854 11C22.9854 4.9258 18.0596 0 11.9854 0ZM18.8587 11.0112C18.8587 11.0112 18.8587 13.2421 18.5757 14.3178C18.4171 14.9066 17.9528 15.3709 17.364 15.5293C16.2883 15.8125 11.9854 15.8125 11.9854 15.8125C11.9854 15.8125 7.69368 15.8125 6.6067 15.5181C6.0179 15.3596 5.55363 14.8952 5.39502 14.3064C5.11186 13.2421 5.11186 11 5.11186 11C5.11186 11 5.11186 8.76932 5.39502 7.69359C5.55347 7.10478 6.02914 6.6291 6.6067 6.47066C7.68243 6.1875 11.9854 6.1875 11.9854 6.1875C11.9854 6.1875 16.2883 6.1875 17.364 6.4819C17.9528 6.64035 18.4171 7.10478 18.5757 7.69359C18.8701 8.76932 18.8587 11.0112 18.8587 11.0112Z" fill="#F89D33"/>
</g>
<defs>
<clipPath id="clip0_32_7136">
<rect width="22" height="22" fill="white" transform="translate(0.985352)"/>
</clipPath>
</defs>
</svg>
