<svg width="23" height="22" viewBox="0 0 23 22" fill="none" xmlns="http://www.w3.org/2000/svg">
<g clip-path="url(#clip0_32_7128)">
<path d="M14.0908 11C14.0908 12.1628 13.1482 13.1055 11.9854 13.1055C10.8225 13.1055 9.87988 12.1628 9.87988 11C9.87988 9.83716 10.8225 8.89453 11.9854 8.89453C13.1482 8.89453 14.0908 9.83716 14.0908 11Z" fill="#F89D33"/>
<path d="M16.909 7.27483C16.8078 7.00056 16.6463 6.75232 16.4365 6.54855C16.2327 6.33875 15.9847 6.17728 15.7102 6.07607C15.4877 5.98962 15.1533 5.88673 14.5375 5.8587C13.8713 5.82832 13.6716 5.82178 11.985 5.82178C10.2984 5.82178 10.0986 5.82816 9.4326 5.85854C8.81677 5.88673 8.48225 5.98962 8.25986 6.07607C7.98543 6.17728 7.73718 6.33875 7.53358 6.54855C7.32378 6.75232 7.16231 7.0004 7.06093 7.27483C6.97449 7.49739 6.8716 7.83191 6.84357 8.44774C6.81319 9.11375 6.80664 9.31349 6.80664 11.0002C6.80664 12.6867 6.81319 12.8864 6.84357 13.5526C6.8716 14.1685 6.97449 14.5028 7.06093 14.7254C7.16231 14.9998 7.32361 15.2479 7.53342 15.4516C7.73718 15.6615 7.98526 15.8229 8.25969 15.9241C8.48225 16.0107 8.81677 16.1136 9.4326 16.1417C10.0986 16.172 10.2982 16.1784 11.9849 16.1784C13.6717 16.1784 13.8715 16.172 14.5373 16.1417C15.1532 16.1136 15.4877 16.0107 15.7102 15.9241C16.2611 15.7116 16.6965 15.2762 16.909 14.7254C16.9954 14.5028 17.0983 14.1685 17.1265 13.5526C17.1569 12.8864 17.1633 12.6867 17.1633 11.0002C17.1633 9.31349 17.1569 9.11375 17.1265 8.44774C17.0985 7.83191 16.9956 7.49739 16.909 7.27483ZM11.985 14.2435C10.1936 14.2435 8.74141 12.7914 8.74141 11C8.74141 9.20859 10.1936 7.75655 11.985 7.75655C13.7763 7.75655 15.2285 9.20859 15.2285 11C15.2285 12.7914 13.7763 14.2435 11.985 14.2435ZM15.3568 8.38631C14.9381 8.38631 14.5988 8.04692 14.5988 7.62831C14.5988 7.2097 14.9381 6.87032 15.3568 6.87032C15.7754 6.87032 16.1147 7.2097 16.1147 7.62831C16.1146 8.04692 15.7754 8.38631 15.3568 8.38631Z" fill="#F89D33"/>
<path d="M11.9854 0C5.91115 0 0.985352 4.9258 0.985352 11C0.985352 17.0742 5.91115 22 11.9854 22C18.0596 22 22.9854 17.0742 22.9854 11C22.9854 4.9258 18.0596 0 11.9854 0ZM18.2637 13.6041C18.2331 14.2765 18.1262 14.7356 17.9701 15.1374C17.642 15.9859 16.9712 16.6566 16.1228 16.9847C15.7211 17.1408 15.2619 17.2476 14.5897 17.2783C13.9161 17.309 13.7009 17.3164 11.9855 17.3164C10.27 17.3164 10.0549 17.309 9.38121 17.2783C8.70898 17.2476 8.24976 17.1408 7.8481 16.9847C7.42647 16.8261 7.04478 16.5775 6.72923 16.2561C6.40797 15.9407 6.15939 15.5589 6.00078 15.1374C5.84468 14.7358 5.73776 14.2765 5.70721 13.6043C5.67616 12.9306 5.66895 12.7154 5.66895 11C5.66895 9.28461 5.67616 9.06943 5.70705 8.39586C5.73759 7.72346 5.84435 7.2644 6.00044 6.86258C6.15906 6.44112 6.40781 6.05927 6.72923 5.74388C7.04462 5.42245 7.42647 5.17387 7.84793 5.01526C8.24976 4.85916 8.70882 4.75241 9.38121 4.72169C10.0548 4.69098 10.27 4.68359 11.9854 4.68359C13.7007 4.68359 13.9159 4.69098 14.5895 4.72186C15.2619 4.75241 15.7209 4.85916 16.1228 5.01509C16.5442 5.17371 16.9261 5.42245 17.2416 5.74388C17.5629 6.05943 17.8116 6.44112 17.9701 6.86258C18.1264 7.2644 18.2331 7.72346 18.2638 8.39586C18.2945 9.06943 18.3018 9.28461 18.3018 11C18.3018 12.7154 18.2945 12.9306 18.2637 13.6041Z" fill="#F89D33"/>
</g>
<defs>
<clipPath id="clip0_32_7128">
<rect width="22" height="22" fill="white" transform="translate(0.985352)"/>
</clipPath>
</defs>
</svg>
