<svg width="23" height="22" viewBox="0 0 23 22" fill="none" xmlns="http://www.w3.org/2000/svg">
<g clip-path="url(#clip0_32_7132)">
<path d="M11.9854 0C5.91998 0 0.985352 4.93462 0.985352 11C0.985352 17.0649 5.91998 22 11.9854 22C18.0503 22 22.9853 17.0649 22.9853 11C22.9853 4.93462 18.0512 0 11.9854 0ZM16.8925 8.4824C16.8974 8.5914 16.9 8.70128 16.9 8.81116C16.9 12.1569 14.3541 16.0135 9.69594 16.0135C8.26611 16.0135 6.93508 15.5957 5.81497 14.877C6.01302 14.9005 6.21463 14.9124 6.41889 14.9124C7.60547 14.9124 8.69678 14.5075 9.56345 13.8286C8.45575 13.8083 7.52039 13.0763 7.19827 12.07C7.35247 12.0993 7.51153 12.1157 7.67414 12.1157C7.90499 12.1157 8.12919 12.0856 8.34143 12.0275C7.18321 11.7953 6.31078 10.7723 6.31078 9.54491C6.31078 9.53428 6.31078 9.5232 6.31122 9.51301C6.65239 9.70221 7.04275 9.81652 7.45748 9.82937C6.77867 9.3761 6.3316 8.6007 6.3316 7.72251C6.3316 7.25816 6.45611 6.82305 6.6741 6.44909C7.92227 7.98127 9.78854 8.98884 11.8923 9.09518C11.8489 8.90953 11.8272 8.71679 11.8272 8.51784C11.8272 7.11991 12.9606 5.98606 14.3585 5.98606C15.0869 5.98606 15.744 6.29356 16.2066 6.78539C16.7839 6.67196 17.3245 6.46193 17.815 6.17083C17.6245 6.76235 17.2244 7.25816 16.7002 7.57186C17.2129 7.51071 17.702 7.37513 18.1544 7.17353C17.8168 7.68042 17.3874 8.1266 16.8925 8.4824Z" fill="#F89D33"/>
</g>
<defs>
<clipPath id="clip0_32_7132">
<rect width="22" height="22" fill="white" transform="translate(0.985352)"/>
</clipPath>
</defs>
</svg>
