<svg width="20" height="21" viewBox="0 0 20 21" fill="none" xmlns="http://www.w3.org/2000/svg">
<g clip-path="url(#clip0_322_15160)">
<path d="M10 20.5C15.5242 20.5 20 16.0242 20 10.5C20 4.97583 15.5242 0.5 10 0.5C4.47583 0.5 0 4.97583 0 10.5C0 16.0242 4.47583 20.5 10 20.5ZM4.57583 10.2833L14.2175 6.56583C14.665 6.40417 15.0558 6.675 14.9108 7.35167L14.9117 7.35083L13.27 15.085C13.1483 15.6333 12.8225 15.7667 12.3667 15.5083L9.86667 13.6658L8.66083 14.8275C8.5275 14.9608 8.415 15.0733 8.15667 15.0733L8.33417 12.5292L12.9675 8.34333C13.1692 8.16583 12.9225 8.06583 12.6567 8.2425L6.93083 11.8475L4.4625 11.0775C3.92667 10.9075 3.915 10.5417 4.57583 10.2833Z" fill="#31A8FF"/>
</g>
<defs>
<clipPath id="clip0_322_15160">
<rect width="20" height="20" fill="white" transform="translate(0 0.5)"/>
</clipPath>
</defs>
</svg>
