<svg width="22" height="23" viewBox="0 0 22 23" fill="none" xmlns="http://www.w3.org/2000/svg">
<g clip-path="url(#clip0_322_15154)">
<path d="M16.192 8.19252C16.0958 7.81752 15.817 7.39002 15.467 7.02377C15.037 6.57377 14.487 6.20752 14.0058 6.10002C12.0192 5.71991 9.9786 5.71991 7.99204 6.10002C7.11704 6.29502 6.02079 7.35002 5.80704 8.19252C5.44974 9.81854 5.44974 11.5028 5.80704 13.1288C5.97954 13.8113 6.72829 14.6288 7.46954 15.0213C7.63381 15.1117 7.80958 15.1794 7.99204 15.2225C8.01091 15.2258 8.02804 15.2356 8.04039 15.2502C8.05274 15.2648 8.05952 15.2834 8.05954 15.3025V17.7025C8.0595 17.7291 8.06743 17.755 8.0823 17.777C8.09717 17.799 8.1183 17.816 8.14295 17.8258C8.16759 17.8356 8.19462 17.8378 8.22054 17.8321C8.24645 17.8264 8.27005 17.8131 8.28829 17.7938L9.42954 16.625L10.4995 15.525C10.5071 15.5168 10.5164 15.5103 10.5268 15.5059C10.5372 15.5016 10.5483 15.4996 10.5595 15.5C11.7145 15.5311 12.8694 15.4381 14.0045 15.2225C14.8795 15.0275 15.9758 13.9725 16.1908 13.1288C16.5485 11.5028 16.5489 9.81863 16.192 8.19252V8.19252ZM14.037 13.25C13.8748 13.6207 13.5956 13.9281 13.242 14.125C13.1314 14.1731 13.0163 14.2099 12.8983 14.235C12.7645 14.1938 12.637 14.1675 12.5233 14.1175C11.5776 13.7483 10.6976 13.2292 9.91704 12.58C9.68511 12.381 9.46671 12.1668 9.26329 11.9388C8.76229 11.3619 8.3418 10.7198 8.01329 10.03C7.85329 9.70502 7.71829 9.36627 7.58079 9.03002C7.45579 8.72377 7.64079 8.40502 7.83079 8.17752C8.01633 7.9649 8.2452 7.79442 8.50204 7.67752C8.5922 7.63166 8.69564 7.61906 8.79418 7.64192C8.89271 7.66478 8.98003 7.72165 9.04079 7.80252C9.3577 8.16186 9.63707 8.55264 9.87454 8.96877C9.94956 9.09 9.97518 9.2354 9.94611 9.37496C9.91703 9.51452 9.83548 9.6376 9.71829 9.71877C9.65579 9.76127 9.59329 9.81252 9.53954 9.86002C9.48651 9.89971 9.44082 9.94836 9.40454 10.0038C9.373 10.0554 9.35388 10.1137 9.34867 10.174C9.34347 10.2343 9.35232 10.295 9.37454 10.3513C9.61579 11.015 9.98204 11.5675 10.5295 11.9563C10.7148 12.0877 10.9144 12.1976 11.1245 12.2838C11.2616 12.3585 11.4159 12.396 11.572 12.3925C11.8445 12.36 11.9345 12.06 12.1245 11.9038C12.2119 11.8326 12.3199 11.7914 12.4325 11.7865C12.5451 11.7815 12.6563 11.813 12.7495 11.8763C12.952 12.0013 13.147 12.1413 13.342 12.28C13.5349 12.4112 13.7206 12.5527 13.8983 12.7038C13.9813 12.7645 14.0406 12.8523 14.0659 12.952C14.0912 13.0516 14.081 13.157 14.037 13.25V13.25ZM12.242 10.25C12.2344 10.2295 12.2294 10.2081 12.227 10.1863C12.2206 10.1021 12.208 10.0186 12.1895 9.93627C12.1528 9.76908 12.058 9.6203 11.922 9.51627C11.8562 9.46968 11.7831 9.43421 11.7058 9.41127C11.607 9.38377 11.5033 9.39127 11.4058 9.36752C11.3576 9.35898 11.3148 9.33169 11.2866 9.29163C11.2585 9.25157 11.2474 9.202 11.2558 9.15377C11.2648 9.10735 11.2905 9.06583 11.3281 9.03705C11.3656 9.00827 11.4124 8.99421 11.4595 8.99752C12.032 9.04002 12.4595 9.31502 12.5695 9.92877C12.5809 9.98574 12.5889 10.0433 12.5933 10.1013C12.6015 10.153 12.6015 10.2058 12.5933 10.2575C12.5864 10.2893 12.57 10.3182 12.5464 10.3405C12.5227 10.3628 12.4929 10.3775 12.4608 10.3825H12.4333C12.3911 10.3852 12.3493 10.3736 12.3146 10.3495C12.2799 10.3255 12.2543 10.2904 12.242 10.25V10.25ZM12.0595 8.70127C11.8669 8.61077 11.6623 8.54806 11.452 8.51502C11.3595 8.50002 11.267 8.49127 11.1745 8.47877C11.1503 8.47758 11.1267 8.47141 11.1049 8.46065C11.0832 8.44989 11.064 8.43477 11.0484 8.41624C11.0328 8.39771 11.0212 8.37616 11.0143 8.35293C11.0074 8.32971 11.0053 8.30532 11.0083 8.28127C11.0085 8.25688 11.0138 8.2328 11.0239 8.2106C11.034 8.18841 11.0487 8.16859 11.067 8.15243C11.0852 8.13628 11.1067 8.12415 11.13 8.11685C11.1533 8.10954 11.1778 8.10721 11.202 8.11002C11.5691 8.12419 11.9286 8.21802 12.2558 8.38502C12.6551 8.58573 12.981 8.90722 13.187 9.30377C13.303 9.53603 13.3807 9.78549 13.417 10.0425C13.4239 10.076 13.4289 10.1098 13.432 10.1438C13.4383 10.2188 13.4408 10.2925 13.447 10.3863V10.4213C13.4461 10.4584 13.4411 10.4953 13.432 10.5313C13.421 10.5674 13.3991 10.5991 13.3693 10.6223C13.3395 10.6455 13.3034 10.659 13.2657 10.6609C13.228 10.6628 13.1906 10.6531 13.1587 10.633C13.1267 10.613 13.1017 10.5835 13.087 10.5488C13.0731 10.4983 13.0668 10.4461 13.0683 10.3938C13.0711 10.1146 13.0157 9.8379 12.9058 9.58127C12.8809 9.5248 12.8529 9.46972 12.822 9.41627C12.6428 9.10888 12.3778 8.8604 12.0595 8.70127V8.70127ZM14.1245 11.0063C13.9995 11.0063 13.9383 10.9 13.9295 10.7838C13.9133 10.555 13.9008 10.325 13.8695 10.0975C13.8153 9.71334 13.6817 9.34467 13.477 9.01502C13.2666 8.67217 12.9865 8.3773 12.6549 8.1495C12.3233 7.92169 11.9476 7.76601 11.552 7.69252C11.372 7.66127 11.1883 7.65377 11.007 7.63377C10.892 7.62252 10.7408 7.61502 10.7158 7.47127C10.7125 7.44373 10.715 7.41579 10.7231 7.38927C10.7313 7.36276 10.745 7.33827 10.7633 7.3174C10.7816 7.29652 10.804 7.27973 10.8292 7.26812C10.8544 7.25652 10.8818 7.25035 10.9095 7.25002H11.0433C11.5823 7.26133 12.1105 7.40383 12.582 7.6652C13.0535 7.92656 13.4543 8.29892 13.7495 8.75002C13.9861 9.11782 14.1468 9.52922 14.222 9.96002C14.2695 10.2313 14.287 10.5088 14.3083 10.7838C14.3124 10.8107 14.3107 10.8382 14.3034 10.8644C14.2962 10.8907 14.2834 10.9151 14.2661 10.9361C14.2488 10.9571 14.2272 10.9742 14.2028 10.9863C14.1784 10.9984 14.1517 11.0052 14.1245 11.0063V11.0063Z" fill="#7233F8"/>
<path d="M11 0.5C8.82442 0.5 6.69768 1.14514 4.88874 2.35383C3.0798 3.56253 1.6699 5.2805 0.837331 7.29048C0.00476617 9.30047 -0.213071 11.5122 0.211367 13.646C0.635805 15.7798 1.68345 17.7398 3.22183 19.2782C4.76021 20.8166 6.72023 21.8642 8.85402 22.2886C10.9878 22.7131 13.1995 22.4952 15.2095 21.6627C17.2195 20.8301 18.9375 19.4202 20.1462 17.6113C21.3549 15.8023 22 13.6756 22 11.5C22 8.58262 20.8411 5.78473 18.7782 3.72183C16.7153 1.65893 13.9174 0.5 11 0.5V0.5ZM17.3538 13.3913V13.4063C17.0338 14.705 15.5863 16.0963 14.2575 16.3863H14.2425C13.1739 16.592 12.0882 16.6962 11 16.6975C10.6825 16.6975 10.3625 16.6875 10.045 16.6688L8.57751 18.195C8.49685 18.2779 8.39332 18.3349 8.28012 18.3588C8.16693 18.3826 8.0492 18.3723 7.94193 18.3289C7.83466 18.2856 7.74272 18.2114 7.67782 18.1156C7.61292 18.0198 7.578 17.9069 7.57751 17.7913V16.3425C7.23278 16.2401 6.90477 16.0881 6.60376 15.8913C5.68126 15.305 4.88126 14.3313 4.65126 13.4063V13.3913C4.25502 11.5924 4.25502 9.72886 4.65126 7.93V7.91375C4.97126 6.61625 6.41751 5.225 7.75001 4.935H7.76501C9.90472 4.525 12.1028 4.525 14.2425 4.935H14.2575C14.975 5.09125 15.7263 5.56875 16.3163 6.185C16.8163 6.70375 17.2063 7.3225 17.3538 7.91875V7.935C17.7493 9.73225 17.7493 11.594 17.3538 13.3913V13.3913Z" fill="#7233F8"/>
</g>
<defs>
<clipPath id="clip0_322_15154">
<rect width="22" height="22" fill="white" transform="translate(0 0.5)"/>
</clipPath>
</defs>
</svg>
