<svg width="20" height="21" viewBox="0 0 20 21" fill="none" xmlns="http://www.w3.org/2000/svg">
<g clip-path="url(#clip0_322_15162)">
<path d="M10 20.5C15.5228 20.5 20 16.0228 20 10.5C20 4.97715 15.5228 0.5 10 0.5C4.47715 0.5 0 4.97715 0 10.5C0 16.0228 4.47715 20.5 10 20.5Z" fill="#29A71A"/>
<path d="M14.4085 6.09091C13.3681 5.04011 11.9864 4.39569 10.5127 4.27389C9.03902 4.15209 7.57029 4.56092 6.37147 5.42664C5.17265 6.29236 4.32266 7.55799 3.97481 8.99522C3.62695 10.4325 3.80414 11.9467 4.47442 13.2648L3.81646 16.4591C3.80963 16.4909 3.80944 16.5238 3.81589 16.5556C3.82234 16.5875 3.8353 16.6177 3.85396 16.6443C3.88129 16.6848 3.9203 16.7159 3.96578 16.7335C4.01127 16.7512 4.06106 16.7546 4.10851 16.7432L7.23919 16.0012C8.55358 16.6545 10.0571 16.8203 11.4823 16.469C12.9074 16.1178 14.1618 15.2724 15.0221 14.0832C15.8824 12.8939 16.2929 11.438 16.1806 9.97454C16.0682 8.51105 15.4403 7.13488 14.4085 6.09091ZM13.4324 13.8818C12.7125 14.5997 11.7855 15.0735 10.7821 15.2366C9.77866 15.3997 8.74934 15.2438 7.83919 14.7909L7.40283 14.575L5.48351 15.0296L5.48919 15.0057L5.88692 13.0739L5.67328 12.6523C5.20823 11.739 5.04418 10.7019 5.20463 9.6896C5.36507 8.67733 5.84178 7.74181 6.56646 7.01705C7.47704 6.10676 8.71187 5.59538 9.99942 5.59538C11.287 5.59538 12.5218 6.10676 13.4324 7.01705C13.4401 7.02594 13.4485 7.0343 13.4574 7.04205C14.3567 7.95469 14.8587 9.18584 14.854 10.4671C14.8493 11.7483 14.3383 12.9758 13.4324 13.8818Z" fill="white"/>
<path d="M13.261 12.4648C13.0258 12.8352 12.6542 13.2886 12.1871 13.4011C11.369 13.5989 10.1133 13.408 8.55077 11.9511L8.53145 11.9341C7.15759 10.6602 6.80077 9.60002 6.88714 8.75911C6.93486 8.28184 7.33259 7.85002 7.66782 7.5682C7.72082 7.52297 7.78366 7.49077 7.85134 7.47416C7.91901 7.45756 7.98962 7.45703 8.05754 7.4726C8.12545 7.48817 8.18878 7.51941 8.24246 7.56384C8.29614 7.60826 8.33868 7.66463 8.36668 7.72843L8.87236 8.86479C8.90522 8.93847 8.9174 9.01971 8.90759 9.09979C8.89778 9.17987 8.86636 9.25576 8.81668 9.31933L8.561 9.65115C8.50614 9.71967 8.47303 9.80303 8.46595 9.89051C8.45886 9.978 8.47811 10.0656 8.52123 10.1421C8.66441 10.3932 9.00759 10.7625 9.38827 11.1046C9.81555 11.4909 10.2894 11.8443 10.5894 11.9648C10.6697 11.9976 10.7579 12.0056 10.8428 11.9878C10.9277 11.9699 11.0052 11.9271 11.0655 11.8648L11.3621 11.5659C11.4194 11.5095 11.4905 11.4692 11.5684 11.4493C11.6462 11.4293 11.728 11.4304 11.8053 11.4523L13.0065 11.7932C13.0727 11.8135 13.1334 11.8487 13.184 11.8961C13.2346 11.9435 13.2736 12.0018 13.2982 12.0667C13.3228 12.1315 13.3322 12.201 13.3257 12.27C13.3193 12.339 13.2971 12.4056 13.261 12.4648Z" fill="white"/>
</g>
<defs>
<clipPath id="clip0_322_15162">
<rect width="20" height="20" fill="white" transform="translate(0 0.5)"/>
</clipPath>
</defs>
</svg>
